<?xml version="1.0" encoding="utf-8"?>
<svg version="1.1" id="Layer_1" xmlns="http://www.w3.org/2000/svg" xmlns:xlink="http://www.w3.org/1999/xlink" x="0px" y="0px"
	 viewBox="0 0 150 150" style="enable-background:new 0 0 150 150;" xml:space="preserve">
<style type="text/css">
	.st0{fill:#C1272D;}
	.st1{fill:#FFFFFF;}
</style>
<g>
	<path class="st0" d="M75,1c-0.01,0-0.02,0-0.03,0c0,0-0.01,0-0.01,0c-0.01,0-0.01,0-0.02,0c0,0-0.01,0-0.01,0c0,0-0.01,0-0.02,0
		c0,0-0.01,0-0.01,0c0,0-0.01,0-0.02,0c0,0-0.01,0-0.01,0c0,0-0.01,0-0.02,0c0,0-0.01,0-0.01,0c-0.01,0-0.02,0-0.02,0
		c0,0,0,0-0.01,0c-0.01,0-0.02,0-0.03,0c0,0,0,0-0.01,0c-0.01,0-0.01,0-0.02,0c0,0-0.01,0-0.01,0c0,0-0.01,0-0.02,0
		c0,0-0.01,0-0.01,0c0,0-0.01,0-0.02,0c0,0-0.01,0-0.01,0c0,0-0.01,0-0.02,0c0,0-0.01,0-0.01,0c-0.01,0-0.01,0-0.02,0
		c0,0-0.01,0-0.01,0c-0.01,0-0.02,0-0.03,0c0,0,0,0,0,0c-0.01,0-0.01,0-0.02,0c0,0-0.01,0-0.01,0c0,0-0.01,0-0.02,0
		c0,0-0.01,0-0.01,0c0,0-0.01,0-0.02,0c0,0-0.01,0-0.01,0c0,0-0.01,0-0.02,0c0,0-0.01,0-0.01,0c-0.01,0-0.01,0-0.02,0
		c0,0-0.01,0-0.01,0c-0.02,0-0.04,0-0.06,0c0,0-0.01,0-0.01,0c-0.01,0-0.01,0-0.02,0c0,0-0.01,0-0.01,0c0,0-0.01,0-0.02,0
		c0,0-0.01,0-0.01,0c0,0-0.01,0-0.02,0c0,0-0.01,0-0.01,0c0,0-0.01,0-0.02,0c0,0-0.01,0-0.01,0c-0.01,0-0.01,0-0.02,0
		c0,0,0,0-0.01,0c-0.01,0-0.02,0-0.03,0c0,0,0,0-0.01,0c-0.01,0-0.01,0-0.02,0c0,0-0.01,0-0.01,0c0,0-0.01,0-0.02,0
		c0,0-0.01,0-0.01,0c0,0-0.01,0-0.02,0c0,0-0.01,0-0.01,0c0,0-0.01,0-0.02,0c0,0-0.01,0-0.01,0c-0.01,0-0.01,0-0.02,0
		c0,0,0,0-0.01,0c-0.01,0-0.02,0-0.03,0c0,0-0.01,0-0.01,0c-0.01,0-0.01,0-0.02,0c0,0-0.01,0-0.01,0c0,0-0.01,0-0.02,0
		c0,0-0.01,0-0.01,0c0,0-0.01,0-0.02,0c0,0-0.01,0-0.01,0c0,0-0.01,0-0.02,0c0,0-0.01,0-0.01,0c0,0-0.01,0-0.02,0c0,0-0.01,0-0.01,0
		c-0.01,0-0.02,0-0.03,0c0,0,0,0,0,0c-0.01,0-0.02,0-0.03,0c0,0-0.01,0-0.01,0c0,0-0.01,0-0.02,0c0,0-0.01,0-0.01,0
		c0,0-0.01,0-0.02,0c0,0-0.01,0-0.01,0c0,0-0.01,0-0.02,0c0,0-0.01,0-0.01,0c0,0-0.01,0-0.02,0c0,0-0.01,0-0.01,0
		c-0.01,0-0.01,0-0.02,0c0,0-0.01,0-0.01,0c-0.01,0-0.02,0-0.03,0c0,0-0.01,0-0.01,0c-0.01,0-0.01,0-0.02,0c0,0-0.01,0-0.01,0
		c0,0-0.01,0-0.02,0c0,0-0.01,0-0.01,0c0,0-0.01,0-0.01,0c0,0-0.01,0-0.01,0c0,0-0.01,0-0.02,0c0,0-0.01,0-0.01,0c0,0-0.01,0-0.02,0
		c0,0-0.01,0-0.01,0c-0.01,0-0.02,0-0.03,0c0,0-0.01,0-0.01,0c-0.01,0-0.01,0-0.02,0c0,0-0.01,0-0.01,0c0,0-0.01,0-0.02,0
		c0,0-0.01,0-0.01,0c0,0-0.01,0-0.02,0c0,0-0.01,0-0.01,0c0,0-0.01,0-0.01,0c0,0-0.01,0-0.01,0c0,0-0.01,0-0.02,0c0,0-0.01,0-0.01,0
		c-0.01,0-0.01,0-0.02,0c-0.01,0-0.01,0-0.02,0c-0.01,0-0.01,0-0.02,0c0,0-0.01,0-0.01,0c0,0-0.01,0-0.02,0c0,0-0.01,0-0.01,0
		c0,0-0.01,0-0.01,0c-0.01,0-0.01,0-0.02,0c0,0-0.01,0-0.01,0c0,0-0.01,0-0.01,0c0,0-0.01,0-0.01,0c-0.01,0-0.01,0-0.01,0
		c0,0-0.01,0-0.01,0c-0.02,0-0.04,0-0.06,0c0,0-0.01,0-0.01,0c-0.01,0-0.01,0-0.02,0c0,0-0.01,0-0.01,0c-0.01,0-0.01,0-0.02,0
		c0,0-0.01,0-0.01,0c-0.01,0-0.01,0-0.02,0c0,0-0.01,0-0.01,0c-0.01,0-0.01,0-0.02,0c0,0-0.01,0-0.01,0c-0.01,0-0.01,0-0.02,0
		c0,0,0,0-0.01,0c-0.01,0-0.03,0-0.04,0c0,0-0.01,0-0.01,0c-0.01,0-0.01,0-0.02,0c0,0-0.01,0-0.01,0c-0.01,0-0.01,0-0.02,0
		c0,0-0.01,0-0.01,0c-0.01,0-0.01,0-0.02,0c0,0-0.01,0-0.01,0c-0.01,0-0.01,0-0.02,0c0,0-0.01,0-0.01,0c-0.01,0-0.01,0-0.02,0
		l-0.01,0c-0.01,0-0.03,0-0.04,0c0,0,0,0,0,0c-0.01,0-0.01,0-0.02,0c0,0-0.01,0-0.01,0c-0.01,0-0.01,0-0.02,0c0,0-0.01,0-0.01,0
		c-0.01,0-0.01,0-0.02,0c0,0-0.01,0-0.01,0c-0.01,0-0.01,0-0.02,0c0,0-0.01,0-0.01,0c-0.01,0-0.01,0-0.02,0c0,0-0.01,0-0.01,0
		c-0.02,0-0.04,0-0.06,0c0,0-0.01,0-0.01,0c-0.01,0-0.01,0-0.02,0c0,0-0.01,0-0.01,0c-0.01,0-0.01,0-0.02,0c0,0,0,0-0.01,0
		c-0.01,0-0.01,0-0.02,0c0,0-0.01,0-0.01,0c-0.01,0-0.01,0-0.02,0l0,0c-0.02,0-0.05,0-0.07,0l0,0c-0.01,0-0.01,0-0.02,0
		c0,0,0,0-0.01,0c-0.01,0-0.01,0-0.02,0c0,0,0,0-0.01,0c-0.01,0-0.01,0-0.02,0c0,0,0,0-0.01,0c-0.01,0-0.01,0-0.02,0c0,0,0,0-0.01,0
		c-0.03,0-0.06,0-0.09,0l0,0c-0.01,0-0.01,0-0.02,0c0,0,0,0-0.01,0c-0.01,0-0.01,0-0.02,0l-0.01,0c-0.01,0-0.01,0-0.02,0
		c0,0,0,0,0,0c-0.03,0-0.07,0-0.1,0l0,0c-0.01,0-0.01,0-0.02,0c0,0,0,0-0.01,0c-0.01,0-0.01,0-0.02,0l-0.01,0c-0.01,0-0.01,0-0.02,0
		c0,0,0,0-0.01,0c-0.01,0-0.01,0-0.02,0l0,0c-0.03,0-0.07,0-0.1,0l0,0c-0.01,0-0.01,0-0.02,0c0,0,0,0-0.01,0c-0.01,0-0.01,0-0.02,0
		l0,0c-0.01,0-0.02,0-0.02,0l0,0c-0.04,0-0.08,0-0.13,0.01c0,0,0,0,0,0c-0.01,0-0.02,0-0.02,0l0,0c-0.01,0-0.02,0-0.02,0l0,0
		c-0.04,0-0.08,0-0.13,0.01l0,0c-0.01,0-0.02,0-0.02,0l0,0c-0.01,0-0.02,0-0.02,0c0,0,0,0,0,0c-1.62,0.08-3.22,0.21-4.81,0.39l0,0
		c-0.05,0.01-0.1,0.01-0.15,0.02l0,0c-0.01,0-0.02,0-0.02,0l0,0c-0.01,0-0.02,0-0.02,0c0,0,0,0,0,0c-0.01,0-0.02,0-0.02,0l0,0
		c-0.03,0-0.07,0.01-0.1,0.01l0,0c-0.01,0-0.01,0-0.02,0c0,0,0,0-0.01,0c-0.01,0-0.01,0-0.02,0c0,0,0,0-0.01,0
		c-0.01,0-0.01,0-0.02,0c0,0,0,0-0.01,0c-0.03,0-0.06,0.01-0.09,0.01c0,0,0,0-0.01,0c-0.01,0-0.01,0-0.02,0c0,0-0.01,0-0.01,0
		c-0.01,0-0.01,0-0.02,0c0,0,0,0-0.01,0c-0.01,0-0.01,0-0.02,0c0,0,0,0-0.01,0c-0.01,0-0.01,0-0.02,0c0,0,0,0-0.01,0
		c-0.02,0-0.04,0.01-0.06,0.01c0,0,0,0-0.01,0c-0.01,0-0.01,0-0.02,0c0,0-0.01,0-0.01,0c-0.01,0-0.01,0-0.02,0c0,0-0.01,0-0.01,0
		c0,0-0.01,0-0.01,0c0,0-0.01,0-0.01,0c0,0-0.01,0-0.01,0c0,0-0.01,0-0.01,0c0,0-0.01,0-0.01,0c-0.01,0-0.01,0-0.02,0
		c-0.01,0-0.01,0-0.01,0c-0.01,0-0.01,0-0.02,0c0,0-0.01,0-0.01,0c0,0-0.01,0-0.01,0c0,0-0.01,0-0.01,0c0,0-0.01,0-0.01,0
		c0,0-0.01,0-0.01,0c0,0-0.01,0-0.01,0c0,0-0.01,0-0.01,0c0,0-0.01,0-0.01,0c0,0-0.01,0-0.01,0c-0.01,0-0.01,0-0.02,0
		c0,0-0.01,0-0.01,0c-0.01,0-0.02,0-0.03,0c0,0,0,0-0.01,0c-0.01,0-0.01,0-0.02,0c0,0,0,0-0.01,0c0,0-0.02,0-0.02,0
		c0,0-0.01,0-0.01,0c0,0-0.01,0-0.02,0c0,0-0.01,0-0.01,0c0,0-0.02,0-0.02,0c0,0-0.01,0-0.01,0c-0.01,0-0.01,0-0.02,0c0,0,0,0,0,0
		c-0.02,0-0.04,0-0.06,0.01c0,0,0,0,0,0c-0.01,0-0.02,0-0.02,0c0,0,0,0-0.01,0c-0.01,0-0.01,0-0.02,0c0,0,0,0-0.01,0
		c-0.01,0-0.01,0-0.02,0c0,0,0,0,0,0c-0.04,0.01-0.07,0.01-0.11,0.02c0,0,0,0,0,0c-0.01,0-0.02,0-0.03,0c0,0,0,0,0,0
		c-0.01,0-0.02,0-0.03,0c0,0,0,0,0,0c-0.98,0.13-1.96,0.29-2.93,0.46l0.17,0.98C66.42,2.37,70.72,2,75,2V1L75,1L75,1z M49.53,5.5
		c-4.1,1.5-8.03,3.36-11.75,5.53l0.5,0.86c3.69-2.15,7.59-3.99,11.59-5.45L49.53,5.5L49.53,5.5z M27.18,18.53
		c-0.89,0.76-1.76,1.53-2.62,2.33l0,0c-0.01,0.01-0.01,0.01-0.02,0.02l0,0c-0.01,0.01-0.01,0.01-0.02,0.02l0,0
		c-0.05,0.05-0.1,0.09-0.15,0.14c0,0,0,0,0,0c-0.01,0.01-0.01,0.01-0.02,0.02l0,0c-0.01,0.01-0.01,0.01-0.02,0.02l0,0
		c-0.01,0.01-0.01,0.01-0.02,0.02c0,0,0,0,0,0c-0.01,0.01-0.01,0.01-0.02,0.02c0,0,0,0,0,0c-0.04,0.03-0.07,0.07-0.11,0.1l0,0
		c-0.01,0.01-0.01,0.01-0.02,0.02c0,0,0,0,0,0c0,0-0.01,0.01-0.01,0.01c0,0,0,0-0.01,0.01c0,0-0.01,0.01-0.01,0.01c0,0,0,0,0,0
		c0,0-0.01,0.01-0.01,0.01c0,0,0,0,0,0c0,0-0.01,0.01-0.01,0.01c0,0,0,0,0,0c0,0-0.01,0.01-0.02,0.01c0,0,0,0,0,0
		c-0.01,0-0.01,0.01-0.02,0.01l0,0c-0.03,0.03-0.06,0.06-0.09,0.09l0,0c-0.01,0.01-0.01,0.01-0.02,0.02l0,0
		c-0.01,0-0.01,0.01-0.02,0.02c0,0,0,0,0,0c0,0-0.01,0.01-0.01,0.01l0,0c0,0-0.01,0.01-0.01,0.01c0,0,0,0,0,0
		c0,0-0.01,0.01-0.01,0.01c0,0,0,0,0,0c0,0-0.01,0.01-0.01,0.01c0,0,0,0,0,0c0,0-0.01,0.01-0.01,0.01l0,0
		c-0.02,0.02-0.05,0.05-0.07,0.07l0,0c0,0-0.01,0.01-0.02,0.01c0,0,0,0,0,0c0,0-0.01,0.01-0.01,0.01c0,0,0,0,0,0
		c0,0-0.01,0.01-0.01,0.01c0,0,0,0-0.01,0.01c0,0-0.01,0.01-0.01,0.01c0,0,0,0-0.01,0.01c0,0-0.01,0.01-0.01,0.01c0,0,0,0-0.01,0.01
		c0,0-0.01,0.01-0.01,0.01c0,0,0,0,0,0c0,0-0.01,0.01-0.01,0.01c0,0,0,0,0,0c-0.02,0.02-0.04,0.04-0.07,0.06c0,0,0,0,0,0
		c0,0-0.01,0.01-0.01,0.01c0,0,0,0-0.01,0.01c0,0-0.01,0.01-0.01,0.01c0,0-0.01,0.01-0.01,0.01c0,0-0.01,0.01-0.01,0.01
		c0,0-0.01,0-0.01,0.01c0,0-0.01,0.01-0.01,0.01c0,0,0,0-0.01,0.01c0,0-0.01,0.01-0.01,0.01c0,0,0,0-0.01,0.01
		c0,0-0.01,0.01-0.01,0.01c0,0,0,0-0.01,0.01c0,0-0.01,0.01-0.01,0.01c0,0-0.01,0.01-0.01,0.01c0,0-0.01,0.01-0.01,0.01
		c0,0-0.01,0.01-0.01,0.01c0,0-0.01,0.01-0.01,0.01c0,0,0,0,0,0c-0.02,0.02-0.03,0.03-0.05,0.05c0,0,0,0,0,0
		c0,0-0.01,0.01-0.01,0.01c0,0,0,0,0,0c0,0-0.01,0.01-0.01,0.01c0,0,0,0-0.01,0.01c0,0-0.01,0.01-0.01,0.01c0,0,0,0-0.01,0.01
		c0,0-0.01,0.01-0.01,0.01c0,0,0,0-0.01,0.01c0,0-0.01,0.01-0.01,0.01c0,0,0,0-0.01,0.01c0,0-0.01,0.01-0.01,0.01
		c0,0-0.01,0.01-0.01,0.01c0,0-0.01,0.01-0.01,0.01c0,0,0,0-0.01,0.01c0,0-0.01,0.01-0.01,0.01c0,0-0.01,0.01-0.01,0.01
		c0,0-0.01,0.01-0.01,0.01c0,0,0,0,0,0c-0.02,0.02-0.03,0.03-0.05,0.05c0,0,0,0-0.01,0.01c0,0-0.01,0.01-0.01,0.01
		c0,0,0,0-0.01,0.01c0,0-0.01,0.01-0.01,0.01c0,0-0.01,0.01-0.01,0.01c0,0-0.01,0.01-0.01,0.01c0,0-0.01,0.01-0.01,0.01
		c0,0-0.01,0.01-0.01,0.01c0,0,0,0-0.01,0.01c0,0-0.01,0.01-0.01,0.01c0,0,0,0-0.01,0.01c0,0-0.01,0.01-0.01,0.01
		c0,0-0.01,0.01-0.01,0.01c0,0-0.01,0.01-0.01,0.01c0,0-0.01,0.01-0.01,0.01c0,0-0.01,0.01-0.01,0.01c0,0-0.01,0.01-0.01,0.01
		c0,0-0.01,0.01-0.01,0.01c0,0,0,0-0.01,0.01c-0.01,0.01-0.02,0.02-0.03,0.03c0,0,0,0,0,0c0,0-0.01,0.01-0.01,0.01
		c0,0,0,0-0.01,0.01c0,0-0.01,0.01-0.01,0.01c0,0-0.01,0.01-0.01,0.01c0,0-0.01,0.01-0.01,0.01c0,0-0.01,0.01-0.01,0.01
		c0,0-0.01,0.01-0.01,0.01c0,0,0,0-0.01,0.01c0,0-0.01,0.01-0.01,0.01c0,0,0,0-0.01,0.01c0,0-0.01,0.01-0.01,0.01c0,0,0,0-0.01,0.01
		c0,0-0.01,0.01-0.01,0.01c0,0-0.01,0.01-0.01,0.01c0,0-0.01,0.01-0.01,0.01c0,0-0.01,0.01-0.01,0.01c0,0-0.01,0.01-0.01,0.01
		c0,0,0,0-0.01,0.01c-0.02,0.02-0.04,0.04-0.06,0.06c0,0,0,0-0.01,0.01c0,0-0.01,0.01-0.01,0.01c0,0,0,0,0,0
		c0,0-0.01,0.01-0.01,0.01c0,0,0,0,0,0c0,0-0.01,0.01-0.01,0.01c0,0,0,0-0.01,0.01c0,0-0.01,0.01-0.01,0.01c0,0,0,0-0.01,0.01
		c0,0-0.01,0.01-0.01,0.01c0,0,0,0-0.01,0.01c0,0-0.01,0.01-0.01,0.01c0,0-0.01,0.01-0.01,0.01c0,0-0.01,0.01-0.01,0.01
		c0,0-0.01,0.01-0.01,0.01c0,0-0.01,0.01-0.01,0.01c0,0-0.01,0.01-0.01,0.01c0,0-0.01,0.01-0.01,0.01c0,0,0,0,0,0
		c-0.01,0.01-0.02,0.02-0.03,0.03c0,0,0,0-0.01,0.01c0,0-0.01,0.01-0.01,0.01c0,0-0.01,0.01-0.01,0.01c0,0-0.01,0.01-0.01,0.01
		c0,0-0.01,0.01-0.01,0.01c0,0-0.01,0.01-0.01,0.01c0,0-0.01,0.01-0.01,0.01c0,0-0.01,0.01-0.01,0.01c0,0-0.01,0.01-0.01,0.01
		c0,0-0.01,0.01-0.01,0.01c0,0-0.01,0.01-0.01,0.01c0,0-0.01,0.01-0.01,0.01c0,0-0.01,0.01-0.01,0.01c0,0-0.01,0.01-0.01,0.01
		c0,0-0.01,0.01-0.01,0.01c0,0-0.01,0.01-0.01,0.01c0,0,0,0-0.01,0.01c0,0-0.01,0.01-0.01,0.01c0,0,0,0-0.01,0.01
		c-0.01,0.01-0.02,0.02-0.02,0.02c0,0,0,0,0,0c0,0-0.01,0.01-0.01,0.01c0,0,0,0-0.01,0.01c0,0-0.01,0.01-0.01,0.01
		c0,0-0.01,0.01-0.01,0.01c0,0-0.01,0.01-0.01,0.01c0,0-0.01,0.01-0.01,0.01c0,0-0.01,0.01-0.01,0.01c0,0-0.01,0.01-0.01,0.01
		c0,0-0.01,0.01-0.01,0.01c0,0,0,0-0.01,0.01c0,0-0.01,0.01-0.01,0.01c0,0,0,0.01-0.01,0.01c0,0-0.01,0.01-0.01,0.01
		c0,0,0,0-0.01,0.01c0,0-0.01,0.01-0.01,0.01c0,0-0.01,0.01-0.01,0.01c0,0-0.01,0.01-0.01,0.01c0,0-0.01,0.01-0.01,0.01
		c0,0-0.01,0.01-0.01,0.01c0,0-0.01,0.01-0.01,0.01c0,0,0,0-0.01,0.01c-0.01,0.01-0.01,0.01-0.02,0.02c0,0-0.01,0.01-0.01,0.01
		c0,0,0,0-0.01,0.01c0,0-0.01,0.01-0.01,0.01c0,0,0,0.01-0.01,0.01c0,0-0.01,0.01-0.01,0.01c0,0-0.01,0.01-0.01,0.01
		c0,0-0.01,0.01-0.01,0.01c0,0,0,0-0.01,0.01c0,0-0.01,0.01-0.01,0.01c0,0,0,0-0.01,0.01c0,0-0.01,0.01-0.01,0.01
		c0,0-0.01,0.01-0.01,0.01c0,0-0.01,0.01-0.01,0.01c0,0-0.01,0.01-0.01,0.01c0,0-0.01,0.01-0.01,0.01c0,0-0.01,0.01-0.01,0.01
		c0,0-0.01,0.01-0.01,0.01c0,0-0.01,0.01-0.01,0.01c0,0-0.01,0.01-0.01,0.01c0,0,0,0-0.01,0.01c-0.01,0.01-0.02,0.02-0.02,0.02
		c0,0,0,0-0.01,0.01c0,0-0.01,0.01-0.01,0.01c0,0-0.01,0.01-0.01,0.01c0,0-0.01,0.01-0.01,0.01c0,0-0.01,0.01-0.01,0.01
		c0,0-0.01,0.01-0.01,0.01c0,0-0.01,0.01-0.01,0.01c0,0-0.01,0.01-0.01,0.01c0,0-0.01,0.01-0.01,0.01c0,0-0.01,0.01-0.01,0.01
		c0,0,0,0.01-0.01,0.01c0,0-0.01,0.01-0.01,0.01c0,0,0,0-0.01,0.01c0,0-0.01,0.01-0.01,0.01c0,0,0,0-0.01,0.01
		c0,0-0.01,0.01-0.01,0.01c0,0,0,0-0.01,0.01c0,0-0.01,0.01-0.01,0.01c0,0,0,0-0.01,0.01c0,0-0.01,0.01-0.01,0.01c0,0,0,0,0,0.01
		c-0.01,0.01-0.02,0.02-0.03,0.03c0,0,0,0,0,0c0,0-0.01,0.01-0.01,0.01c0,0,0,0-0.01,0.01c0,0-0.01,0.01-0.01,0.01
		c0,0-0.01,0.01-0.01,0.01c0,0-0.01,0.01-0.01,0.01c0,0-0.01,0.01-0.01,0.01c0,0-0.01,0.01-0.01,0.01c0,0,0,0-0.01,0.01
		c0,0-0.01,0.01-0.01,0.01c0,0,0,0-0.01,0.01c0,0-0.01,0.01-0.01,0.01c0,0-0.01,0.01-0.01,0.01c0,0-0.01,0.01-0.01,0.01
		c0,0-0.01,0.01-0.01,0.01c0,0-0.01,0.01-0.01,0.01c0,0-0.01,0.01-0.01,0.01c0,0-0.01,0.01-0.01,0.01c0,0,0,0,0,0
		c-0.02,0.02-0.03,0.03-0.05,0.05c0,0,0,0,0,0c0,0-0.01,0.01-0.01,0.01c0,0,0,0-0.01,0.01c0,0-0.01,0.01-0.01,0.01
		c0,0-0.01,0.01-0.01,0.01c0,0-0.01,0.01-0.01,0.01c0,0-0.01,0.01-0.01,0.01c0,0-0.01,0.01-0.01,0.01c0,0,0,0-0.01,0.01
		c0,0-0.01,0.01-0.01,0.01c0,0,0,0-0.01,0.01c0,0-0.01,0.01-0.01,0.01c0,0-0.01,0.01-0.01,0.01c0,0-0.01,0.01-0.01,0.01
		c0,0-0.01,0.01-0.01,0.01c0,0-0.01,0.01-0.01,0.01c0,0-0.01,0.01-0.01,0.01c0,0-0.01,0.01-0.01,0.01c0,0-0.01,0.01-0.01,0.01
		c0,0-0.01,0.01-0.01,0.01c-0.01,0.01-0.01,0.01-0.02,0.02c0,0-0.01,0.01-0.01,0.01c0,0.01-0.01,0.01-0.01,0.01
		c0,0-0.01,0.01-0.01,0.01c0,0-0.01,0.01-0.01,0.01c0,0-0.01,0.01-0.01,0.01c0,0-0.01,0.01-0.01,0.01c0,0-0.01,0.01-0.01,0.01
		c0,0-0.01,0.01-0.01,0.01c0,0-0.01,0.01-0.01,0.01c0,0-0.01,0.01-0.01,0.01c0,0-0.01,0.01-0.01,0.01c0,0-0.01,0.01-0.01,0.01
		c0,0-0.01,0.01-0.01,0.01c0,0-0.01,0.01-0.01,0.01c0,0-0.01,0.01-0.01,0.01c0,0-0.01,0.01-0.01,0.01c0,0-0.01,0.01-0.01,0.01
		c0,0,0,0-0.01,0.01c0,0-0.01,0.01-0.01,0.01c0,0-0.01,0.01-0.01,0.01c-0.01,0.01-0.01,0.02-0.02,0.02c0,0,0,0,0,0.01
		c0,0-0.01,0.01-0.01,0.01c0,0,0,0.01-0.01,0.01c0,0-0.01,0.01-0.01,0.01c0,0-0.01,0.01-0.01,0.01c0,0-0.01,0.01-0.01,0.01
		c0,0-0.01,0.01-0.01,0.01c0,0-0.01,0.01-0.01,0.01c0,0,0,0.01-0.01,0.01c0,0-0.01,0.01-0.01,0.01c0,0,0,0.01-0.01,0.01
		c0,0-0.01,0.01-0.01,0.01c0,0,0,0-0.01,0.01c0,0-0.01,0.01-0.01,0.01c0,0-0.01,0.01-0.01,0.01c0,0-0.01,0.01-0.01,0.01
		c0,0-0.01,0.01-0.01,0.01c0,0-0.01,0.01-0.01,0.01c0,0,0,0-0.01,0.01c-0.01,0.02-0.03,0.03-0.04,0.05c0,0,0,0,0,0
		c0,0-0.01,0.01-0.01,0.01c0,0,0,0-0.01,0.01c0,0-0.01,0.01-0.01,0.01c0,0,0,0-0.01,0.01c0,0-0.01,0.01-0.01,0.01
		c0,0-0.01,0.01-0.01,0.01c0,0-0.01,0.01-0.01,0.01c0,0,0,0-0.01,0.01c0,0-0.01,0.01-0.01,0.01c0,0,0,0.01-0.01,0.01
		c0,0-0.01,0.01-0.01,0.01c0,0-0.01,0.01-0.01,0.01c0,0-0.01,0.01-0.01,0.01c0,0-0.01,0.01-0.01,0.01c0,0-0.01,0.01-0.01,0.01
		c0,0-0.01,0.01-0.01,0.01c0,0-0.01,0.01-0.01,0.01c0,0,0,0-0.01,0.01c-0.01,0.01-0.03,0.03-0.04,0.04c0,0,0,0-0.01,0.01
		c0,0-0.01,0.01-0.01,0.01c0,0-0.01,0.01-0.01,0.01c0,0-0.01,0.01-0.01,0.01c0,0-0.01,0.01-0.01,0.01c0,0-0.01,0.01-0.01,0.01
		c0,0-0.01,0.01-0.01,0.01c0,0-0.01,0.01-0.01,0.01c0,0-0.01,0.01-0.01,0.01c0,0-0.01,0.01-0.01,0.01c0,0,0,0.01-0.01,0.01
		c0,0-0.01,0.01-0.01,0.01c0,0-0.01,0.01-0.01,0.01c0,0-0.01,0.01-0.01,0.01c0,0-0.01,0.01-0.01,0.01c0,0-0.01,0.01-0.01,0.01
		c0,0-0.01,0.01-0.01,0.01c0,0-0.01,0.01-0.01,0.01c0,0,0,0-0.01,0.01c0,0-0.01,0.01-0.01,0.01c0,0.01-0.01,0.01-0.01,0.02
		c0,0-0.01,0.01-0.01,0.01c0,0-0.01,0.01-0.01,0.01c0,0-0.01,0.01-0.01,0.01c0,0-0.01,0.01-0.01,0.01c0,0-0.01,0.01-0.01,0.01
		c0,0-0.01,0.01-0.01,0.01c0,0-0.01,0.01-0.01,0.01c0,0-0.01,0.01-0.01,0.01c0,0-0.01,0.01-0.01,0.01c0,0,0,0.01-0.01,0.01
		c0,0-0.01,0.01-0.01,0.01c0,0-0.01,0.01-0.01,0.01c0,0-0.01,0.01-0.01,0.01c0,0-0.01,0.01-0.01,0.01c0,0-0.01,0.01-0.01,0.01
		c0,0-0.01,0.01-0.01,0.01c0,0-0.01,0.01-0.01,0.01c0,0-0.01,0.01-0.01,0.01c0,0-0.01,0.01-0.01,0.01c0,0,0,0-0.01,0.01
		c-0.01,0.01-0.01,0.02-0.02,0.02c0,0,0,0-0.01,0.01c0,0-0.01,0.01-0.01,0.01c0,0,0,0-0.01,0.01c0,0-0.01,0.01-0.01,0.01
		c0,0-0.01,0.01-0.01,0.01c0,0-0.01,0.01-0.01,0.01c0,0-0.01,0.01-0.01,0.01c0,0-0.01,0.01-0.01,0.01c0,0-0.01,0.01-0.01,0.01
		c0,0-0.01,0.01-0.01,0.01c0,0-0.01,0.01-0.01,0.01c0,0-0.01,0.01-0.01,0.01c0,0-0.01,0.01-0.01,0.01c0,0-0.01,0.01-0.01,0.01
		c0,0-0.01,0.01-0.01,0.01c0,0-0.01,0.01-0.01,0.01c0,0.01-0.01,0.01-0.01,0.01c0,0,0,0.01-0.01,0.01c0,0-0.01,0.01-0.01,0.01
		c0,0-0.01,0.01-0.01,0.01c0,0.01-0.01,0.01-0.01,0.01c0,0-0.01,0.01-0.01,0.01c0,0.01-0.01,0.01-0.01,0.02c0,0,0,0-0.01,0.01
		c0,0.01-0.01,0.01-0.01,0.01c0,0-0.01,0.01-0.01,0.01c0,0-0.01,0.01-0.01,0.01c0,0-0.01,0.01-0.01,0.01c0,0-0.01,0.01-0.01,0.01
		c0,0-0.01,0.01-0.01,0.01c0,0-0.01,0.01-0.01,0.01c0,0-0.01,0.01-0.01,0.01c0,0-0.01,0.01-0.01,0.01c0,0-0.01,0.01-0.01,0.01
		c0,0-0.01,0.01-0.01,0.01c0,0-0.01,0.01-0.01,0.01c0,0-0.01,0.01-0.01,0.01c0,0-0.01,0.01-0.01,0.01c0,0.01-0.01,0.01-0.01,0.01
		c0,0,0,0-0.01,0.01c0,0.01-0.01,0.01-0.01,0.01c0,0,0,0,0,0c-0.01,0.01-0.01,0.01-0.02,0.02c0,0,0,0-0.01,0.01
		c0,0.01-0.01,0.01-0.01,0.02c0,0,0,0-0.01,0.01c0,0.01-0.01,0.01-0.01,0.01c0,0-0.01,0.01-0.01,0.01c0,0-0.01,0.01-0.01,0.01
		c0,0-0.01,0.01-0.01,0.01c0,0-0.01,0.01-0.01,0.01c0,0-0.01,0.01-0.01,0.01c0,0-0.01,0.01-0.01,0.01c0,0-0.01,0.01-0.01,0.01
		c0,0-0.01,0.01-0.01,0.01c0,0-0.01,0.01-0.01,0.01c0,0-0.01,0.01-0.01,0.01c0,0,0,0.01-0.01,0.01c0,0-0.01,0.01-0.01,0.01
		c0,0,0,0.01-0.01,0.01c0,0.01-0.01,0.01-0.01,0.01c0,0,0,0-0.01,0.01c0,0.01-0.01,0.01-0.01,0.02c0,0,0,0,0,0
		c-0.01,0.01-0.01,0.01-0.02,0.02c0,0,0,0,0,0c0,0.01-0.01,0.01-0.01,0.02c0,0,0,0-0.01,0.01c0,0.01-0.01,0.01-0.01,0.01
		c0,0,0,0.01-0.01,0.01c0,0-0.01,0.01-0.01,0.01c0,0,0,0.01-0.01,0.01c0,0-0.01,0.01-0.01,0.01c0,0,0,0.01-0.01,0.01
		c0,0-0.01,0.01-0.01,0.01c0,0,0,0.01-0.01,0.01c0,0-0.01,0.01-0.01,0.01c0,0,0,0.01-0.01,0.01c0,0-0.01,0.01-0.01,0.01
		c0,0,0,0.01-0.01,0.01c0,0.01-0.01,0.01-0.01,0.01c0,0,0,0-0.01,0.01c0,0.01-0.01,0.01-0.01,0.01c0,0,0,0-0.01,0.01
		c-0.01,0.01-0.02,0.03-0.04,0.04c0,0,0,0,0,0c-0.01,0.01-0.01,0.01-0.02,0.02c0,0,0,0,0,0c0,0.01-0.01,0.01-0.01,0.02
		c0,0,0,0-0.01,0.01c0,0.01-0.01,0.01-0.01,0.01c0,0,0,0,0,0.01c0,0.01-0.01,0.01-0.01,0.01c0,0,0,0-0.01,0.01
		c0,0-0.01,0.01-0.01,0.01c0,0,0,0,0,0.01c0,0-0.01,0.01-0.01,0.01c0,0,0,0-0.01,0.01c0,0.01-0.01,0.01-0.01,0.02c0,0,0,0,0,0
		c-0.01,0.01-0.01,0.01-0.01,0.02c0,0,0,0,0,0c-0.02,0.03-0.05,0.05-0.07,0.08c0,0,0,0,0,0c-0.01,0.01-0.01,0.01-0.02,0.02
		c0,0,0,0,0,0c0,0.01-0.01,0.01-0.01,0.02c0,0,0,0,0,0.01c0,0.01-0.01,0.01-0.01,0.02c0,0,0,0,0,0c-0.01,0.01-0.01,0.01-0.01,0.02
		c0,0,0,0,0,0c-0.01,0.01-0.01,0.01-0.01,0.02c0,0,0,0,0,0c-0.01,0.01-0.01,0.01-0.02,0.02c0,0,0,0,0,0
		c-0.02,0.03-0.05,0.05-0.07,0.08c0,0,0,0,0,0c-0.01,0.01-0.02,0.03-0.03,0.04c0,0,0,0,0,0C19,26.62,19,26.63,18.99,26.63
		c0,0,0,0,0,0c-0.01,0.01-0.01,0.01-0.02,0.02c0,0,0,0,0,0c-0.01,0.01-0.01,0.01-0.02,0.02c0,0,0,0,0,0
		c-0.01,0.01-0.01,0.01-0.02,0.02c0,0,0,0,0,0c-0.01,0.01-0.01,0.01-0.02,0.02c0,0,0,0,0,0c-0.04,0.05-0.08,0.1-0.13,0.15l0,0
		c-0.01,0.01-0.02,0.03-0.04,0.04c0,0,0,0,0,0c-0.24,0.28-0.48,0.56-0.71,0.84l0.77,0.64c2.73-3.28,5.76-6.34,9.01-9.1L27.18,18.53
		L27.18,18.53z M10.65,38.43c-0.91,1.6-1.77,3.24-2.56,4.91c0,0,0,0,0,0c0,0.01-0.01,0.01-0.01,0.02l0,0c0,0.01-0.01,0.01-0.01,0.02
		l0,0c0,0.01-0.01,0.01-0.01,0.02c0,0,0,0,0,0c0,0.01-0.01,0.01-0.01,0.02l0,0C8.03,43.47,8.02,43.5,8,43.54c0,0,0,0,0,0
		c0,0.01-0.01,0.01-0.01,0.02c0,0,0,0,0,0.01c0,0.01-0.01,0.01-0.01,0.02c0,0,0,0.01,0,0.01c0,0.01-0.01,0.01-0.01,0.02
		c0,0,0,0.01,0,0.01c0,0.01-0.01,0.01-0.01,0.02c0,0,0,0.01,0,0.01c0,0.01-0.01,0.01-0.01,0.02c0,0,0,0,0,0.01
		c0,0.01-0.01,0.01-0.01,0.02l0,0c-0.01,0.02-0.02,0.04-0.03,0.06c0,0,0,0,0,0c0,0.01,0,0.01-0.01,0.01c0,0,0,0.01,0,0.01
		c0,0,0,0.01-0.01,0.01c0,0,0,0.01-0.01,0.01c0,0,0,0.01-0.01,0.01c0,0,0,0.01-0.01,0.01c0,0,0,0.01-0.01,0.01c0,0,0,0.01-0.01,0.01
		c0,0,0,0.01-0.01,0.01c0,0,0,0.01-0.01,0.01c0,0,0,0.01-0.01,0.01c0,0,0,0.01-0.01,0.01c0,0,0,0.01,0,0.01c0,0.01,0,0.01-0.01,0.01
		c0,0,0,0.01,0,0.01c0,0.01-0.01,0.01-0.01,0.02c0,0,0,0,0,0c0,0.01-0.01,0.02-0.01,0.02c0,0,0,0,0,0c0,0.01-0.01,0.01-0.01,0.02
		c0,0,0,0,0,0.01c0,0.01-0.01,0.01-0.01,0.02c0,0,0,0,0,0.01c0,0.01-0.01,0.01-0.01,0.02c0,0,0,0,0,0.01c0,0-0.01,0.01-0.01,0.02
		c0,0,0,0.01,0,0.01c0,0-0.01,0.01-0.01,0.02c0,0,0,0,0,0.01c0,0.01-0.01,0.01-0.01,0.02c0,0,0,0,0,0.01c0,0.01-0.01,0.01-0.01,0.02
		c0,0,0,0,0,0c-0.02,0.03-0.03,0.07-0.05,0.1c0,0,0,0,0,0c0,0.01-0.01,0.01-0.01,0.02c0,0,0,0,0,0c0,0.01-0.01,0.01-0.01,0.02
		c0,0,0,0,0,0c0,0.01-0.01,0.01-0.01,0.02c0,0,0,0,0,0.01c0,0.01-0.01,0.01-0.01,0.02c0,0,0,0,0,0c-0.02,0.05-0.05,0.1-0.07,0.15
		c0,0,0,0,0,0c0,0.01-0.01,0.02-0.01,0.02c0,0,0,0,0,0c0,0.01-0.01,0.02-0.01,0.02c0,0,0,0,0,0c0,0.01-0.01,0.02-0.01,0.03l0,0
		c-0.83,1.84-1.59,3.72-2.27,5.63l0.94,0.33c1.43-4.02,3.22-7.93,5.33-11.64L10.65,38.43L10.65,38.43z M2,62.8
		c-0.1,0.58-0.19,1.16-0.27,1.75l0,0c0,0.01,0,0.02,0,0.02c0,0,0,0,0,0c0,0.03-0.01,0.06-0.01,0.09c0,0,0,0,0,0
		c0,0.01,0,0.01,0,0.02l0,0c0,0.03-0.01,0.06-0.01,0.09l0,0c0,0.01,0,0.01,0,0.02l0,0.01c0,0.01,0,0.01,0,0.02c0,0,0,0,0,0
		c0,0.02-0.01,0.04-0.01,0.07l0,0c0,0.01,0,0.01,0,0.02c0,0,0,0,0,0.01c0,0.01,0,0.01,0,0.02c0,0,0,0.01,0,0.01
		c0,0.01,0,0.01,0,0.02l0,0c0,0.01,0,0.03-0.01,0.04l0,0c0,0.01,0,0.01,0,0.02c0,0,0,0.01,0,0.01c0,0.01,0,0.01,0,0.02
		c0,0,0,0,0,0.01c0,0.01,0,0.01,0,0.02c0,0,0,0,0,0.01c0,0.02-0.01,0.04-0.01,0.06c0,0,0,0.01,0,0.01c0,0.01,0,0.01,0,0.02
		c0,0,0,0,0,0.01c0,0.01,0,0.01,0,0.02c0,0,0,0.01,0,0.01c0,0.01,0,0.01,0,0.02c0,0,0,0.01,0,0.01c0,0.01,0,0.02,0,0.03
		c0,0,0,0.01,0,0.01c0,0.01,0,0.01,0,0.02c0,0,0,0.01,0,0.01c0,0.01,0,0.01,0,0.02c0,0,0,0.01,0,0.01c0,0.01,0,0.01,0,0.02
		c0,0,0,0.01,0,0.01c0,0.01,0,0.02,0,0.02c0,0.01,0,0.01,0,0.02c0,0,0,0.01,0,0.01c0,0,0,0.01,0,0.02c0,0,0,0.01,0,0.01
		c0,0,0,0.01,0,0.01c0,0,0,0.01,0,0.01c0,0,0,0.01,0,0.01c0,0,0,0.01,0,0.01c0,0.01,0,0.01,0,0.02c0,0,0,0.01,0,0.01
		c0,0,0,0.01,0,0.01c0,0,0,0.01,0,0.01c0,0,0,0.01,0,0.01c0,0,0,0.01,0,0.01c0,0,0,0.01,0,0.01c0,0,0,0.01,0,0.01
		c0,0.01,0,0.01,0,0.02c0,0,0,0.01,0,0.01c0,0.01,0,0.01,0,0.02c0,0,0,0.01,0,0.01c0,0,0,0.01,0,0.02c0,0,0,0.01,0,0.01
		c0,0,0,0.01,0,0.02c0,0,0,0.01,0,0.01c0,0.01,0,0.01,0,0.02c0,0,0,0,0,0c0,0.01,0,0.02,0,0.03c0,0,0,0.01,0,0.01c0,0,0,0.01,0,0.02
		c0,0,0,0.01,0,0.01c0,0,0,0.01,0,0.02c0,0,0,0.01,0,0.01c0,0.01,0,0.01,0,0.02c0,0,0,0,0,0.01c0,0.01,0,0.02,0,0.03c0,0,0,0,0,0
		c0,0.01,0,0.01,0,0.02c0,0,0,0.01,0,0.01c0,0,0,0.01,0,0.02c0,0,0,0.01,0,0.01c0,0,0,0.02,0,0.02c0,0,0,0,0,0.01
		c0,0.01,0,0.02,0,0.03c0,0,0,0,0,0c0,0.01,0,0.02,0,0.03c0,0,0,0.01,0,0.01c0,0,0,0.01,0,0.02c0,0,0,0.01,0,0.01c0,0,0,0.01,0,0.02
		c0,0,0,0.01,0,0.01c0,0.01,0,0.02,0,0.03c0,0,0,0,0,0c0,0.01,0,0.02,0,0.03c0,0,0,0,0,0.01c0,0.01,0,0.01,0,0.02c0,0,0,0,0,0.01
		c0,0,0,0.02,0,0.02c0,0,0,0,0,0.01c0,0.01,0,0.01,0,0.02c0,0,0,0,0,0c0,0.01,0,0.02,0,0.03c0,0,0,0,0,0c0,0.01,0,0.02,0,0.03
		c0,0,0,0,0,0.01c0,0,0,0.02,0,0.02c0,0,0,0,0,0.01c0,0.01,0,0.01,0,0.02c0,0,0,0,0,0.01c0,0.02,0,0.04-0.01,0.06c0,0,0,0,0,0
		c0,0.01,0,0.01,0,0.02c0,0,0,0,0,0.01c0,0,0,0.02,0,0.02c0,0,0,0,0,0.01c0,0.01,0,0.02,0,0.03c0,0,0,0,0,0c0,0.01,0,0.02,0,0.03
		c0,0,0,0,0,0c0,0.01,0,0.02,0,0.03c0,0,0,0,0,0.01c0,0.01,0,0.01,0,0.02c0,0,0,0,0,0.01c0,0.01,0,0.01,0,0.02c0,0,0,0,0,0
		c0,0.02,0,0.04-0.01,0.06c0,0,0,0,0,0c0,0.01,0,0.01,0,0.02c0,0,0,0,0,0.01c0,0.01,0,0.01,0,0.02c0,0,0,0,0,0
		c0,0.02,0,0.04-0.01,0.06c0,0,0,0,0,0c0,0.01,0,0.02,0,0.03c0,0,0,0,0,0c0,0.01,0,0.01,0,0.02c0,0,0,0,0,0
		c0,0.03-0.01,0.06-0.01,0.08c0,0,0,0,0,0c0,0.01,0,0.01,0,0.02c0,0,0,0,0,0.01c0,0.01,0,0.02,0,0.03c0,0,0,0,0,0
		c0,0.02,0,0.04-0.01,0.06c0,0,0,0,0,0c0,0.01,0,0.02,0,0.03c0,0,0,0,0,0c0,0.01,0,0.02,0,0.03c0,0,0,0,0,0
		c0,0.03-0.01,0.06-0.01,0.09c0,0,0,0,0,0c0,0.01,0,0.02,0,0.03c0,0,0,0,0,0c0,0.03-0.01,0.06-0.01,0.09c0,0,0,0,0,0
		c0,0.01,0,0.02,0,0.03c0,0,0,0,0,0c0,0.03-0.01,0.06-0.01,0.09c0,0,0,0,0,0c0,0.01,0,0.02,0,0.03c0,0,0,0,0,0c0,0.01,0,0.02,0,0.03
		c0,0,0,0,0,0c0,0.03-0.01,0.06-0.01,0.09c0,0,0,0,0,0c0,0.01,0,0.02,0,0.03c0,0,0,0,0,0c0,0.04-0.01,0.08-0.01,0.12c0,0,0,0,0,0
		c0,0.04-0.01,0.08-0.01,0.11c0,0,0,0,0,0c0,0.04-0.01,0.08-0.01,0.12c0,0,0,0,0,0c0,0.01,0,0.02,0,0.03c0,0,0,0,0,0
		c0,0.04-0.01,0.08-0.01,0.12l0,0c0,0.04-0.01,0.08-0.01,0.12c0,0,0,0,0,0c0,0.01,0,0.02,0,0.03l0,0c0,0.03-0.01,0.06-0.01,0.09
		c0,0,0,0,0,0c0,0.01,0,0.02,0,0.03c0,0,0,0,0,0c0,0.04-0.01,0.08-0.01,0.12c0,0,0,0,0,0c0,0.04-0.01,0.08-0.01,0.12c0,0,0,0,0,0
		c-0.02,0.18-0.03,0.35-0.04,0.53l0,0c0,0.04-0.01,0.08-0.01,0.12c0,0,0,0,0,0c-0.02,0.22-0.03,0.43-0.05,0.65l0,0
		c0,0.04-0.01,0.08-0.01,0.12c0,0,0,0,0,0c0,0.04-0.01,0.08-0.01,0.12l0,0c-0.01,0.18-0.02,0.35-0.03,0.53c0,0,0,0,0,0
		c0,0.04,0,0.08-0.01,0.12c0,0,0,0,0,0c0,0.01,0,0.02,0,0.03c0,0,0,0,0,0c0,0.03,0,0.06,0,0.09c0,0,0,0,0,0c0,0.01,0,0.02,0,0.03
		c0,0,0,0,0,0c0,0.01,0,0.02,0,0.03l0,0c0,0.03,0,0.06,0,0.09c0,0,0,0,0,0c0,0.01,0,0.02,0,0.03c0,0,0,0,0,0c0,0.03,0,0.06,0,0.09
		c0,0,0,0,0,0c0,0.01,0,0.02,0,0.03c0,0,0,0,0,0c0,0.03,0,0.06,0,0.09c0,0,0,0,0,0c0,0.01,0,0.02,0,0.03c0,0,0,0,0,0
		c0,0.03,0,0.06,0,0.09c0,0,0,0,0,0c0,0.01,0,0.02,0,0.03c0,0,0,0,0,0c0,0.01,0,0.02,0,0.03c0,0,0,0,0,0c0,0.03,0,0.06,0,0.09
		c0,0,0,0,0,0c0,0.01,0,0.02,0,0.03c0,0,0,0,0,0c0,0.03,0,0.06,0,0.09c0,0,0,0,0,0c0,0.01,0,0.02,0,0.03c0,0,0,0,0,0
		c0,0.01,0,0.02,0,0.03c0,0,0,0,0,0c0,0.02,0,0.04,0,0.06c0,0,0,0,0,0c0,0.01,0,0.02,0,0.03c0,0,0,0,0,0c0,0.01,0,0.02,0,0.03
		c0,0,0,0,0,0c0,0.03,0,0.06,0,0.09c0,0,0,0,0,0c0,0.01,0,0.02,0,0.03c0,0,0,0,0,0c0,0.03,0,0.06,0,0.09c0,0,0,0,0,0
		c0,0.01,0,0.02,0,0.03c0,0,0,0,0,0c0,0.01,0,0.02,0,0.03c0,0,0,0,0,0c0,0.02,0,0.04,0,0.06c0,0,0,0,0,0c0,0.01,0,0.02,0,0.03
		c0,0,0,0,0,0c0,0.01,0,0.01,0,0.02c0,0,0,0,0,0c0,0.03,0,0.06,0,0.09c0,0,0,0,0,0c0,0.01,0,0.01,0,0.02c0,0,0,0,0,0
		c0,0.01,0,0.02,0,0.03c0,0,0,0,0,0c0,0.02,0,0.04,0,0.06c0,0,0,0,0,0c0,0.01,0,0.01,0,0.02c0,0,0,0,0,0c0,0.01,0,0.02,0,0.03
		c0,0,0,0,0,0c0,0.02,0,0.04,0,0.06c0,0,0,0,0,0c0,0.01,0,0.02,0,0.03c0,0,0,0,0,0c0,0.01,0,0.01,0,0.02c0,0,0,0,0,0.01
		c0,0.03,0,0.06,0,0.09c0,0,0,0,0,0.01c0,0.01,0,0.01,0,0.02c0,0,0,0,0,0.01c0,0.01,0,0.01,0,0.02c0,0,0,0,0,0c0,0.02,0,0.04,0,0.06
		c0,0,0,0,0,0.01c0,0.01,0,0.01,0,0.02c0,0,0,0,0,0.01c0,0.01,0,0.01,0,0.02c0,0,0,0,0,0.01c0,0.02,0,0.04,0,0.06c0,0,0,0,0,0
		c0,0.01,0,0.01,0,0.02c0,0,0,0,0,0.01c0,0,0,0.02,0,0.02c0,0,0,0,0,0.01c0,0.01,0,0.01,0,0.02c0,0,0,0,0,0c0,0.02,0,0.04,0,0.06
		c0,0,0,0.01,0,0.01c0,0,0,0.02,0,0.02c0,0,0,0.01,0,0.01c0,0.01,0,0.01,0,0.02c0,0,0,0,0,0.01c0,0.02,0,0.04,0,0.06c0,0,0,0,0,0.01
		c0,0.01,0,0.01,0,0.02c0,0,0,0,0,0.01c0,0.01,0,0.01,0,0.02c0,0,0,0,0,0.01c0,0.02,0,0.04,0,0.06c0,0,0,0,0,0c0,0.01,0,0.01,0,0.02
		c0,0,0,0,0,0.01c0,0,0,0.02,0,0.02c0,0,0,0,0,0.01c0,0.01,0,0.02,0,0.03c0,0,0,0,0,0c0,0.02,0,0.04,0,0.06c0,0,0,0,0,0.01
		c0,0.01,0,0.01,0,0.02c0,0,0,0,0,0.01c0,0.01,0,0.01,0,0.02c0,0,0,0,0,0c0,0.02,0,0.04,0,0.06c0,0,0,0,0,0c0,0.01,0,0.01,0,0.02
		c0,0,0,0,0,0.01c0,0.01,0,0.01,0,0.02c0,0,0,0,0,0.01c0,0.01,0,0.02,0,0.03c0,0,0,0,0,0c0,0.01,0,0.02,0,0.03c0,0,0,0,0,0
		c0,0.01,0,0.02,0,0.03c0,0,0,0,0,0.01c0,0.01,0,0.01,0,0.02c0,0,0,0,0,0.01c0,0.01,0,0.02,0,0.02c0,0,0,0,0,0.01
		c0,0.02,0,0.04,0,0.06c0,0,0,0,0,0.01c0,0.01,0,0.01,0,0.02c0,0,0,0,0,0.01c0,0.01,0,0.01,0,0.02c0,0,0,0,0,0.01
		c0,0.02,0,0.04,0,0.06c0,0,0,0,0,0.01c0,0,0,0.02,0,0.02c0,0,0,0.01,0,0.01c0,0,0,0.01,0,0.02c0,0,0,0.01,0,0.01
		c0,0.01,0,0.01,0,0.02c0,0,0,0,0,0c0,0.01,0,0.02,0,0.03c0,0,0,0,0,0c0,0.01,0,0.01,0,0.02c0,0,0,0,0,0.01c0,0,0,0.02,0,0.02
		c0,0,0,0.01,0,0.01c0,0.01,0,0.01,0,0.02c0,0,0,0,0,0.01c0,0.02,0,0.04,0,0.06c0,0,0,0,0,0.01c0,0,0,0.02,0,0.02c0,0,0,0.01,0,0.01
		c0,0,0,0.02,0,0.02c0,0,0,0,0,0.01c0,0.01,0,0.02,0,0.03c0,0,0,0,0,0c0,0.01,0,0.02,0,0.03c0,0,0,0,0,0.01c0,0.01,0,0.01,0,0.02
		c0,0,0,0.01,0,0.01c0,0,0,0.02,0,0.02c0,0,0,0,0,0.01c0,0.01,0,0.01,0,0.02c0,0,0,0,0,0c0,0.01,0,0.02,0,0.03c0,0,0,0,0,0
		c0,0.01,0,0.01,0,0.02c0,0,0,0.01,0,0.01c0,0,0,0.01,0,0.02c0,0,0,0.01,0,0.01c0,0,0,0.01,0,0.02c0,0,0,0.01,0,0.01
		c0,0.02,0,0.03,0,0.05c0,0,0,0.01,0,0.01c0,0,0,0.02,0,0.02c0,0,0,0.01,0,0.01c0,0,0,0.01,0,0.02c0,0,0,0.01,0,0.01
		c0,0.01,0,0.02,0,0.02c0,0,0,0,0,0c0,0.01,0,0.02,0,0.03c0,0,0,0.01,0,0.01c0,0,0,0.01,0,0.02c0,0,0,0.01,0,0.01c0,0,0,0.01,0,0.02
		c0,0,0,0.01,0,0.01c0,0,0,0.01,0,0.02c0,0,0,0,0,0.01c0,0.01,0,0.02,0,0.03c0,0,0,0,0,0.01c0,0.01,0,0.02,0,0.02c0,0,0,0.01,0,0.01
		c0,0,0,0.01,0,0.02c0,0,0,0.01,0,0.01c0,0,0,0.01,0,0.02c0,0,0,0.01,0,0.01c0,0.01,0,0.02,0,0.03l0,0c0,0.01,0,0.02,0,0.03
		c0,0,0,0,0,0.01c0,0,0,0.02,0,0.02c0,0,0,0,0,0.01c0,0.23,0,0.46,0,0.69l1-0.01c0-0.25,0-0.49,0-0.74c0-4.04,0.33-8.09,0.99-12.04
		L2,62.8L2,62.8z M3.24,88.49l-0.98,0.18c0.81,4.31,1.98,8.49,3.5,12.5l0.94-0.35C5.19,96.83,4.03,92.68,3.24,88.49L3.24,88.49z
		 M12.27,112.35l-0.86,0.51c0.86,1.44,1.77,2.85,2.72,4.22c0,0,0,0,0,0c0.01,0.01,0.01,0.01,0.01,0.02c0,0,0,0,0,0
		c0.01,0.01,0.01,0.01,0.01,0.02c0,0,0,0,0,0c0.01,0.01,0.01,0.01,0.02,0.02l0,0c0.03,0.05,0.06,0.09,0.09,0.14c0,0,0,0,0,0
		c0.01,0.01,0.01,0.01,0.01,0.02c0,0,0,0,0,0c0.01,0.01,0.01,0.01,0.01,0.02c0,0,0,0,0,0.01c0,0.01,0.01,0.01,0.01,0.02
		c0,0,0,0,0,0.01c0,0.01,0.01,0.01,0.01,0.02c0,0,0,0,0,0.01c0,0.01,0.01,0.01,0.01,0.02c0,0,0,0,0,0c0.01,0.01,0.01,0.01,0.01,0.02
		c0,0,0,0,0,0c0.01,0.02,0.02,0.03,0.03,0.05c0,0,0,0,0,0c0.01,0.01,0.01,0.01,0.01,0.02c0,0,0,0,0,0.01c0,0.01,0.01,0.01,0.01,0.02
		c0,0,0,0.01,0.01,0.01c0,0,0.01,0.01,0.01,0.01c0,0,0,0.01,0.01,0.01c0,0,0.01,0.01,0.01,0.01c0,0,0,0.01,0.01,0.01
		c0,0,0.01,0.01,0.01,0.01c0,0,0,0.01,0.01,0.01c0,0,0.01,0.01,0.01,0.01c0,0,0,0.01,0.01,0.01c0,0,0.01,0.01,0.01,0.01
		c0,0,0,0.01,0.01,0.01c0,0.01,0,0.01,0.01,0.01c0,0,0,0.01,0.01,0.01c0,0,0,0.01,0.01,0.01c0,0,0.01,0.01,0.01,0.01
		c0,0,0,0.01,0.01,0.01c0.01,0.01,0.01,0.02,0.02,0.02c0,0,0,0.01,0.01,0.01c0,0,0.01,0.01,0.01,0.01c0,0,0,0.01,0.01,0.01
		c0,0,0.01,0.01,0.01,0.01c0,0,0,0.01,0.01,0.01c0,0,0.01,0.01,0.01,0.01c0,0,0,0.01,0,0.01c0,0,0.01,0.01,0.01,0.01c0,0,0,0,0,0.01
		c0,0.01,0.01,0.01,0.01,0.02c0,0,0,0,0,0c0,0.01,0.01,0.01,0.01,0.02c0,0,0,0,0,0c0,0.01,0.01,0.01,0.01,0.02l0,0
		c0,0.01,0.01,0.01,0.01,0.02l0,0c0.03,0.04,0.06,0.08,0.09,0.12l0,0c0,0.01,0.01,0.01,0.01,0.02l0,0c0,0.01,0.01,0.01,0.01,0.02
		l0,0c0,0.01,0.01,0.01,0.01,0.02l0,0c0,0.01,0.01,0.01,0.01,0.02l0,0c0.05,0.07,0.1,0.14,0.15,0.21l0,0
		c1.27,1.76,2.61,3.45,4.03,5.09l0.76-0.65C16.97,119.5,14.45,116.01,12.27,112.35L12.27,112.35z M28.96,131.65l-0.63,0.78
		c0.99,0.8,1.99,1.58,3.02,2.33c0,0,0,0,0,0c0.04,0.03,0.09,0.07,0.13,0.1c0,0,0,0,0,0c0.01,0.01,0.01,0.01,0.02,0.02c0,0,0,0,0,0
		c0.01,0.01,0.01,0.01,0.02,0.01c0,0,0,0,0,0c0.01,0.01,0.01,0.01,0.02,0.01c0,0,0,0,0,0c0.01,0.01,0.01,0.01,0.02,0.01c0,0,0,0,0,0
		c0.01,0,0.01,0.01,0.02,0.01c0,0,0,0,0,0c0.01,0,0.01,0.01,0.02,0.01c0,0,0,0,0,0c0.01,0,0.01,0.01,0.02,0.01c0,0,0,0,0,0
		c0.02,0.01,0.03,0.02,0.04,0.03c0,0,0,0,0,0c0.01,0.01,0.01,0.01,0.02,0.01c0,0,0,0,0.01,0c0.01,0,0.01,0.01,0.02,0.01
		c0,0,0,0,0.01,0.01c0,0,0.01,0.01,0.01,0.01c0,0,0.01,0,0.01,0.01c0,0,0.01,0.01,0.01,0.01c0,0,0.01,0,0.01,0.01
		c0,0,0.01,0.01,0.01,0.01c0,0,0.01,0.01,0.01,0.01c0,0,0.01,0,0.01,0.01c0,0,0.01,0,0.01,0.01c0,0,0.01,0.01,0.01,0.01
		c0,0,0.01,0.01,0.01,0.01c0,0,0.01,0.01,0.01,0.01c0,0,0.01,0,0.01,0.01c0,0,0.01,0.01,0.01,0.01c0.01,0.01,0.02,0.01,0.03,0.02
		c0,0,0,0,0,0c0.01,0,0.01,0.01,0.02,0.01c0,0,0,0,0.01,0c0,0,0.01,0.01,0.01,0.01c0,0,0.01,0,0.01,0.01c0,0,0.01,0.01,0.01,0.01
		c0,0,0.01,0,0.01,0.01c0,0,0.01,0.01,0.01,0.01c0,0,0.01,0,0.01,0c0,0,0.01,0.01,0.01,0.01c0,0,0,0,0.01,0.01
		c0,0,0.01,0.01,0.01,0.01c0,0,0,0,0.01,0.01c0,0,0.01,0.01,0.01,0.01c0,0,0,0,0.01,0c0.01,0,0.01,0.01,0.02,0.01c0,0,0,0,0,0
		c0.01,0,0.01,0.01,0.02,0.01l0,0c0.03,0.02,0.07,0.05,0.1,0.07c0,0,0,0,0,0c0.01,0,0.01,0.01,0.02,0.01c0,0,0,0,0,0
		c0.01,0,0.01,0.01,0.02,0.01c0,0,0,0,0,0c0.01,0,0.01,0.01,0.02,0.01l0,0c0.01,0,0.01,0.01,0.02,0.01c0,0,0,0,0,0
		c1.63,1.15,3.3,2.24,5.02,3.26c0,0,0,0,0,0c0.01,0,0.01,0.01,0.02,0.01l0,0c0.01,0,0.01,0.01,0.02,0.01l0,0
		c0.05,0.03,0.1,0.06,0.15,0.09l0,0c0.01,0,0.01,0.01,0.02,0.01c0,0,0,0,0.01,0c0.01,0,0.01,0.01,0.02,0.01c0,0,0,0,0.01,0
		c0.01,0,0.01,0.01,0.02,0.01c0,0,0,0,0.01,0c0.01,0,0.01,0.01,0.02,0.01c0,0,0.01,0,0.01,0c0.01,0,0.01,0.01,0.01,0.01
		c0,0,0.01,0,0.01,0.01c0,0,0.01,0.01,0.01,0.01c0,0,0.01,0.01,0.01,0.01c0,0,0.01,0,0.01,0.01c0,0,0.01,0.01,0.01,0.01
		c0,0,0.01,0,0.01,0.01c0.01,0,0.01,0,0.01,0.01c0.01,0,0.01,0.01,0.02,0.01c0.01,0,0.01,0.01,0.01,0.01c0,0,0.01,0,0.01,0.01
		c0.01,0,0.01,0,0.01,0.01c0,0,0.01,0,0.01,0.01c0,0,0.01,0,0.01,0.01c0,0,0.01,0,0.01,0.01c0,0,0.01,0,0.01,0.01
		c0,0,0.01,0,0.01,0.01c0,0,0.01,0.01,0.01,0.01c0,0,0.01,0,0.01,0.01c0,0,0.01,0.01,0.02,0.01c0,0,0.01,0,0.01,0
		c0,0,0.01,0.01,0.02,0.01c0,0,0.01,0,0.01,0c0.01,0,0.01,0.01,0.02,0.01c0,0,0,0,0.01,0c0.01,0,0.01,0.01,0.02,0.01c0,0,0,0,0,0
		c0.03,0.02,0.06,0.04,0.1,0.06c0,0,0,0,0,0c0.01,0,0.01,0.01,0.02,0.01c0,0,0,0,0,0c0.01,0,0.01,0.01,0.02,0.01c0,0,0,0,0,0
		c0.01,0,0.01,0.01,0.02,0.01c0,0,0,0,0,0c0.01,0,0.01,0.01,0.02,0.01c0,0,0,0,0,0c0.01,0,0.01,0.01,0.02,0.01c0,0,0,0,0,0
		c0.31,0.18,0.62,0.36,0.94,0.53l0.49-0.87C35.84,136.77,32.27,134.35,28.96,131.65L28.96,131.65z M51.26,144.05L50.94,145
		c1.27,0.44,2.55,0.84,3.84,1.2l0,0c0.01,0,0.02,0,0.02,0.01l0,0c0.05,0.01,0.1,0.03,0.15,0.04l0,0c0.01,0,0.01,0,0.02,0.01l0,0
		c0.01,0,0.01,0,0.02,0.01l0,0c0.01,0,0.01,0,0.02,0.01l0,0c0.04,0.01,0.08,0.02,0.12,0.03l0,0c0.01,0,0.01,0,0.02,0.01
		c0,0,0,0,0.01,0c0.01,0,0.01,0,0.02,0.01l0,0c0.01,0,0.01,0,0.02,0.01c0,0,0,0,0.01,0c0.01,0,0.01,0,0.02,0.01c0,0,0,0,0,0
		c0.01,0,0.01,0,0.02,0.01l0,0c0.02,0.01,0.05,0.01,0.07,0.02l0,0c0.01,0,0.01,0,0.02,0.01c0,0,0.01,0,0.01,0c0.01,0,0.01,0,0.02,0
		c0,0,0.01,0,0.01,0c0.01,0,0.01,0,0.02,0c0,0,0,0,0.01,0c0.01,0,0.01,0,0.02,0c0,0,0.01,0,0.01,0c0.01,0,0.01,0,0.02,0
		c0,0,0.01,0,0.01,0c0.01,0,0.01,0,0.02,0l0.01,0c0.02,0.01,0.04,0.01,0.06,0.02c0,0,0.01,0,0.01,0c0.01,0,0.01,0,0.02,0
		c0,0,0.01,0,0.01,0c0.01,0,0.01,0,0.02,0c0,0,0.01,0,0.01,0c0.01,0,0.01,0,0.02,0c0,0,0,0,0.01,0c0.01,0,0.01,0,0.02,0
		c0,0,0.01,0,0.01,0c0.01,0,0.01,0,0.02,0c0,0,0.01,0,0.01,0c0.01,0,0.01,0,0.02,0c0,0,0,0,0.01,0c0.01,0,0.02,0.01,0.03,0.01
		c0,0,0,0,0.01,0c0.01,0,0.01,0,0.02,0c0,0,0.01,0,0.01,0c0.01,0,0.01,0,0.02,0c0,0,0.01,0,0.01,0c0.01,0,0.01,0,0.02,0
		c0,0,0.01,0,0.01,0c0.01,0,0.01,0,0.02,0c0,0,0.01,0,0.01,0c0.01,0,0.01,0,0.02,0c0,0,0.01,0,0.01,0c0.01,0,0.01,0,0.02,0
		c0,0,0.01,0,0.01,0c0.01,0,0.01,0,0.02,0c0,0,0.01,0,0.01,0c0.01,0,0.02,0.01,0.03,0.01c0,0,0.01,0,0.01,0c0,0,0.01,0,0.01,0
		c0,0,0.01,0,0.01,0c0.01,0,0.01,0,0.02,0c0,0,0.01,0,0.01,0c0,0,0.01,0,0.01,0c0,0,0.01,0,0.01,0c0,0,0.01,0,0.02,0
		c0,0,0.01,0,0.01,0c0.01,0,0.01,0,0.01,0c0,0,0.01,0,0.01,0c0,0,0.01,0,0.01,0c0,0,0.01,0,0.01,0c0,0,0.01,0,0.01,0
		c0.01,0,0.01,0,0.02,0c0.01,0,0.01,0,0.02,0.01c0,0,0.01,0,0.01,0c0,0,0.01,0,0.01,0c0,0,0.01,0,0.01,0c0,0,0.01,0,0.01,0
		c0,0,0.01,0,0.01,0c0,0,0.01,0,0.01,0c0,0,0.01,0,0.01,0c0,0,0.01,0,0.01,0c0,0,0.01,0,0.01,0c0,0,0.01,0,0.01,0c0,0,0.01,0,0.01,0
		c0,0,0.01,0,0.01,0c0.01,0,0.01,0,0.02,0c0,0,0.01,0,0.01,0c0.01,0,0.02,0,0.03,0.01c0,0,0.01,0,0.01,0c0,0,0.01,0,0.01,0
		c0,0,0.01,0,0.01,0c0,0,0.01,0,0.01,0c0,0,0.01,0,0.01,0c0,0,0.01,0,0.01,0c0,0,0.01,0,0.01,0c0,0,0.01,0,0.01,0
		c0.01,0,0.01,0,0.01,0c0,0,0.01,0,0.01,0c0,0,0.01,0,0.01,0c0,0,0.01,0,0.01,0c0,0,0.01,0,0.01,0c0,0,0.01,0,0.01,0
		c0.01,0,0.01,0,0.02,0c0.01,0,0.01,0,0.02,0.01c0,0,0.01,0,0.01,0c0.01,0,0.01,0,0.01,0c0,0,0.01,0,0.01,0c0,0,0.01,0,0.01,0
		c0,0,0.01,0,0.01,0c0,0,0.01,0,0.01,0c0,0,0.01,0,0.01,0c0,0,0.01,0,0.01,0c0,0,0.01,0,0.01,0c0,0,0.01,0,0.02,0c0,0,0.01,0,0.01,0
		c0.01,0,0.01,0,0.02,0c0,0,0.01,0,0.01,0c0.01,0,0.01,0,0.02,0.01c0,0,0.01,0,0.01,0c0.01,0,0.02,0,0.02,0.01c0,0,0.01,0,0.01,0
		c0.01,0,0.01,0,0.02,0c0,0,0.01,0,0.01,0c0,0,0.01,0,0.01,0c0,0,0.01,0,0.01,0c0,0,0.01,0,0.01,0c0,0,0.01,0,0.01,0
		c0,0,0.01,0,0.02,0c0,0,0.01,0,0.01,0c0,0,0.01,0,0.02,0c0,0,0.01,0,0.01,0c0.01,0,0.01,0,0.02,0c0,0,0.01,0,0.01,0
		c0.01,0,0.02,0,0.03,0.01c0,0,0,0,0,0c0.01,0,0.01,0,0.02,0.01c0,0,0.01,0,0.01,0c0.01,0,0.01,0,0.02,0c0,0,0.01,0,0.01,0
		c0,0,0.01,0,0.02,0c0,0,0.01,0,0.01,0c0,0,0.01,0,0.02,0c0,0,0.01,0,0.01,0c0,0,0.01,0,0.02,0c0,0,0.01,0,0.01,0c0,0,0.01,0,0.02,0
		c0,0,0.01,0,0.01,0c0.01,0,0.01,0,0.02,0.01c0,0,0,0,0.01,0c0.01,0,0.02,0,0.03,0.01c0,0,0,0,0,0c0.01,0,0.01,0,0.02,0.01
		c0,0,0.01,0,0.01,0c0.01,0,0.01,0,0.02,0c0,0,0.01,0,0.01,0c0,0,0.01,0,0.02,0c0,0,0.01,0,0.01,0c0,0,0.01,0,0.02,0
		c0,0,0.01,0,0.01,0c0,0,0.01,0,0.02,0c0,0,0.01,0,0.01,0c0,0,0.01,0,0.02,0c0,0,0.01,0,0.01,0c0.01,0,0.01,0,0.02,0.01
		c0,0,0,0,0.01,0c0.01,0,0.02,0,0.03,0.01c0,0,0,0,0.01,0c0.01,0,0.01,0,0.02,0.01c0,0,0.01,0,0.01,0c0.01,0,0.01,0,0.02,0
		c0,0,0.01,0,0.01,0c0,0,0.01,0,0.02,0c0,0,0.01,0,0.01,0c0,0,0.01,0,0.02,0c0,0,0.01,0,0.01,0c0,0,0.01,0,0.02,0c0,0,0.01,0,0.01,0
		c0.01,0,0.01,0,0.02,0c0,0,0.01,0,0.01,0c0.02,0,0.03,0.01,0.05,0.01c0,0,0,0,0.01,0c0.01,0,0.01,0,0.02,0c0,0,0.01,0,0.01,0
		c0,0,0.01,0,0.02,0c0,0,0.01,0,0.01,0c0,0,0.01,0,0.02,0c0,0,0.01,0,0.01,0c0,0,0.01,0,0.02,0c0,0,0.01,0,0.01,0c0,0,0.01,0,0.02,0
		c0,0,0.01,0,0.01,0c0.01,0,0.01,0,0.02,0c0,0,0.01,0,0.01,0c0.01,0,0.02,0,0.03,0.01c0,0,0,0,0,0c0.01,0,0.02,0,0.02,0.01
		c0,0,0,0,0.01,0c0.01,0,0.01,0,0.02,0c0,0,0.01,0,0.01,0c0,0,0.01,0,0.02,0c0,0,0.01,0,0.01,0c0,0,0.01,0,0.02,0c0,0,0.01,0,0.01,0
		c0,0,0.01,0,0.02,0c0,0,0.01,0,0.01,0c0,0,0.01,0,0.01,0c0,0,0.01,0,0.01,0c0.01,0,0.01,0,0.02,0c0,0,0.01,0,0.01,0
		c0.01,0,0.02,0,0.03,0.01c0,0,0,0,0.01,0c0.01,0,0.01,0,0.02,0c0,0,0.01,0,0.01,0c0,0,0.01,0,0.02,0c0,0,0.01,0,0.01,0
		c0,0,0.01,0,0.02,0c0,0,0.01,0,0.01,0c0,0,0.01,0,0.01,0c0,0,0.01,0,0.01,0c0,0,0.01,0,0.01,0c0,0,0.01,0,0.01,0c0,0,0.01,0,0.01,0
		c0,0,0.01,0,0.01,0c0.01,0,0.01,0,0.02,0c0,0,0.01,0,0.01,0c0.01,0,0.02,0,0.03,0.01c0,0,0.01,0,0.01,0c0.01,0,0.01,0,0.02,0
		c0,0,0.01,0,0.01,0c0,0,0.01,0,0.01,0c0,0,0.01,0,0.01,0c0,0,0.01,0,0.01,0c0,0,0.01,0,0.01,0c0,0,0.01,0,0.01,0c0,0,0.01,0,0.01,0
		c0,0,0.01,0,0.01,0c0,0,0.01,0,0.01,0c0,0,0.01,0,0.01,0c0,0,0.01,0,0.01,0c0.01,0,0.01,0,0.02,0c0,0,0.01,0,0.01,0
		c0.01,0,0.02,0,0.02,0.01c0,0,0.01,0,0.01,0c0.01,0,0.01,0,0.02,0c0,0,0.01,0,0.01,0c0,0,0.01,0,0.02,0c0,0,0.01,0,0.01,0
		c0,0,0.01,0,0.01,0c0,0,0.01,0,0.01,0c0,0,0.01,0,0.01,0c0,0,0.01,0,0.01,0c0,0,0.01,0,0.02,0c0,0,0.01,0,0.01,0
		c0.01,0,0.01,0,0.02,0c0,0,0.01,0,0.01,0c0.01,0,0.01,0,0.02,0c0,0,0.01,0,0.01,0c0.01,0,0.01,0,0.02,0c0,0,0.01,0,0.01,0
		c0.01,0,0.01,0,0.02,0c0,0,0.01,0,0.01,0c0,0,0.01,0,0.01,0c0,0,0.01,0,0.01,0c0,0,0.01,0,0.01,0c0,0,0.01,0,0.01,0
		c0,0,0.01,0,0.01,0c0,0,0.01,0,0.01,0c0,0,0.01,0,0.01,0c0,0,0.01,0,0.01,0c0,0,0.01,0,0.01,0c0.01,0,0.01,0,0.02,0c0,0,0,0,0,0
		c0.01,0,0.02,0.01,0.03,0.01c0,0,0.01,0,0.01,0c0,0,0.01,0,0.01,0c0,0,0.01,0,0.01,0c0,0,0.01,0,0.01,0c0,0,0.01,0,0.01,0
		c0,0,0.01,0,0.01,0c0,0,0.01,0,0.01,0c0,0,0.01,0,0.01,0c0,0,0.01,0,0.01,0c0,0,0.01,0,0.01,0c0,0,0.01,0,0.01,0c0,0,0.01,0,0.02,0
		c0,0,0,0,0.01,0c0.02,0,0.04,0.01,0.06,0.01c0,0,0.01,0,0.01,0c0.01,0,0.01,0,0.02,0c0,0,0.01,0,0.01,0c0.01,0,0.01,0,0.02,0
		c0,0,0.01,0,0.01,0c0.01,0,0.01,0,0.02,0c0,0,0.01,0,0.01,0c0,0,0.01,0,0.02,0c0,0,0.01,0,0.01,0c0.01,0,0.01,0,0.02,0
		c0,0,0.01,0,0.01,0c0.01,0,0.01,0,0.02,0l0.01,0c0.02,0,0.04,0.01,0.06,0.01c0,0,0.01,0,0.01,0c0.01,0,0.01,0,0.02,0
		c0,0,0.01,0,0.01,0c0,0,0.01,0,0.01,0c0,0,0.01,0,0.01,0c0.01,0,0.01,0,0.02,0c0,0,0.01,0,0.01,0c0.01,0,0.01,0,0.02,0
		c0,0,0.01,0,0.01,0c0.01,0,0.01,0,0.02,0c0,0,0.01,0,0.01,0c0.01,0,0.01,0,0.02,0c0,0,0,0,0,0c0.02,0,0.03,0.01,0.04,0.01
		c0,0,0,0,0,0c0.01,0,0.01,0,0.02,0c0,0,0.01,0,0.01,0c0.01,0,0.01,0,0.02,0c0,0,0.01,0,0.01,0c0.01,0,0.01,0,0.02,0
		c0,0,0.01,0,0.01,0c0.01,0,0.01,0,0.02,0c0,0,0,0,0.01,0c0.01,0,0.01,0,0.02,0c0,0,0.01,0,0.01,0c0.01,0,0.01,0,0.02,0
		c0,0,0.01,0,0.01,0c0.02,0,0.04,0.01,0.07,0.01l0,0c0.01,0,0.01,0,0.02,0c0,0,0.01,0,0.01,0c0.01,0,0.01,0,0.02,0
		c0,0,0.01,0,0.01,0c0.01,0,0.01,0,0.02,0c0,0,0,0,0.01,0c0.01,0,0.01,0,0.02,0c0,0,0.01,0,0.01,0c0.01,0,0.01,0,0.02,0
		c0,0,0.01,0,0.01,0c0.01,0,0.01,0,0.02,0l0,0c0.02,0,0.05,0.01,0.07,0.01l0,0c0.01,0,0.01,0,0.02,0c0,0,0,0,0.01,0
		c0.01,0,0.01,0,0.02,0c0,0,0.01,0,0.01,0c0.01,0,0.01,0,0.02,0c0,0,0,0,0.01,0c0.01,0,0.01,0,0.02,0c0,0,0.01,0,0.01,0
		c0.01,0,0.01,0,0.02,0c0,0,0,0,0.01,0c0.01,0,0.01,0,0.02,0l0,0c0.02,0,0.04,0.01,0.07,0.01c0,0,0,0,0.01,0c0.01,0,0.01,0,0.02,0
		c0,0,0.01,0,0.01,0c0.01,0,0.01,0,0.02,0c0,0,0.01,0,0.01,0c0.01,0,0.01,0,0.02,0c0,0,0,0,0.01,0c0.01,0,0.01,0,0.02,0
		c0,0,0.01,0,0.01,0c0.01,0,0.01,0,0.02,0c0,0,0.01,0,0.01,0c0.03,0.01,0.06,0.01,0.09,0.02l0,0c0.01,0,0.01,0,0.02,0
		c0,0,0,0,0.01,0c0.01,0,0.01,0,0.02,0c0,0,0.01,0,0.01,0c0.01,0,0.01,0,0.02,0c0,0,0,0,0.01,0c0.01,0,0.01,0,0.02,0c0,0,0,0,0.01,0
		c0.01,0,0.01,0,0.02,0l0.01,0c0.03,0.01,0.06,0.01,0.09,0.02l0,0c0.01,0,0.01,0,0.02,0c0,0,0,0,0.01,0c0.01,0,0.01,0,0.02,0
		c0,0,0,0,0.01,0c0.01,0,0.01,0,0.02,0c0,0,0,0,0.01,0c0.01,0,0.01,0,0.02,0c0,0,0,0,0,0c0.01,0,0.01,0,0.02,0l0,0
		c0.03,0.01,0.06,0.01,0.1,0.02l0,0c0.01,0,0.01,0,0.02,0c0,0,0,0,0,0c0.01,0,0.01,0,0.02,0l0.01,0c0.01,0,0.01,0,0.02,0
		c0,0,0,0,0.01,0c0.01,0,0.01,0,0.02,0c0,0,0,0,0.01,0c0.01,0,0.01,0,0.02,0l0,0c0.03,0.01,0.07,0.01,0.1,0.02c0,0,0,0,0,0
		c0.01,0,0.01,0,0.02,0c0,0,0,0,0.01,0c0.01,0,0.01,0,0.02,0c0,0,0,0,0.01,0c0.01,0,0.01,0,0.02,0c0,0,0.01,0,0.01,0
		c0.01,0,0.01,0,0.02,0l0,0c0.04,0.01,0.08,0.02,0.12,0.02c0,0,0,0,0,0c0.01,0,0.01,0,0.02,0c0,0,0,0,0,0c0.01,0,0.01,0,0.02,0
		c0,0,0,0,0.01,0c0.01,0,0.01,0,0.02,0c0,0,0,0,0,0c0.01,0,0.02,0,0.02,0l0,0c0.04,0.01,0.08,0.02,0.12,0.02c0,0,0,0,0,0
		c0.01,0,0.01,0,0.02,0c0,0,0,0,0.01,0c0.01,0,0.01,0,0.02,0c0,0,0,0,0,0c0.01,0,0.01,0,0.02,0c0,0,0,0,0,0
		c0.04,0.01,0.08,0.01,0.12,0.02l0,0c0.01,0,0.01,0,0.02,0c0,0,0,0,0.01,0c0.01,0,0.01,0,0.02,0l0.01,0c0.01,0,0.01,0,0.02,0
		c0,0,0,0,0.01,0c0.01,0,0.01,0,0.02,0l0,0c0.04,0.01,0.08,0.01,0.12,0.02l0,0c0.01,0,0.01,0,0.02,0c0,0,0,0,0,0
		c0.01,0,0.01,0,0.02,0l0.01,0c0.01,0,0.01,0,0.02,0c0,0,0,0,0.01,0c0.01,0,0.01,0,0.02,0l0,0c0.03,0.01,0.06,0.01,0.1,0.02l0,0
		c0.01,0,0.02,0,0.02,0c0,0,0,0,0,0c0.01,0,0.01,0,0.02,0c0,0,0,0,0.01,0c0.01,0,0.01,0,0.02,0l0.01,0c0.01,0,0.01,0,0.02,0
		c0,0,0,0,0.01,0c0.01,0,0.01,0,0.02,0l0,0c0.04,0.01,0.08,0.01,0.12,0.02c0,0,0,0,0,0c0.01,0,0.02,0,0.02,0l0,0
		c0.01,0,0.01,0,0.02,0c0,0,0,0,0.01,0c0.01,0,0.01,0,0.02,0c0,0,0,0,0,0c0.01,0,0.01,0,0.02,0l0,0c0.03,0.01,0.07,0.01,0.1,0.02
		l0,0c0.01,0,0.02,0,0.02,0c0,0,0,0,0,0c0.01,0,0.01,0,0.02,0l0,0c0.01,0,0.01,0,0.02,0c0,0,0,0,0,0c0.01,0,0.01,0,0.02,0
		c0,0,0,0,0,0c0.04,0.01,0.08,0.01,0.12,0.02l0,0c0.01,0,0.01,0,0.02,0c0,0,0,0,0,0c0.01,0,0.01,0,0.02,0l0,0c0.01,0,0.01,0,0.02,0
		c0,0,0,0,0,0c0.01,0,0.01,0,0.02,0l0,0c0.04,0.01,0.08,0.01,0.12,0.02c0,0,0,0,0,0c0.01,0,0.01,0,0.02,0c0,0,0,0,0,0
		c0.01,0,0.01,0,0.02,0l0,0c0.01,0,0.01,0,0.02,0c0,0,0,0,0,0c0.01,0,0.01,0,0.02,0l0,0c0.03,0.01,0.06,0.01,0.1,0.02l0,0
		c0.01,0,0.01,0,0.02,0c0,0,0,0,0.01,0c0.01,0,0.01,0,0.02,0c0,0,0,0,0.01,0c0.01,0,0.01,0,0.02,0c0,0,0,0,0.01,0
		c0.01,0,0.01,0,0.02,0l0,0l0.15-0.99C59.47,146.47,55.29,145.44,51.26,144.05L51.26,144.05z M89.21,146.62
		c-4.17,0.82-8.45,1.28-12.74,1.37l0.02,1c2.23-0.04,4.44-0.19,6.62-0.43c0,0,0,0,0,0c0.01,0,0.02,0,0.03,0c0,0,0,0,0,0
		c0.01,0,0.02,0,0.03,0c0,0,0,0,0,0c0.03,0,0.06-0.01,0.09-0.01c0,0,0,0,0,0c0.01,0,0.02,0,0.03,0c0,0,0,0,0.01,0
		c0.01,0,0.01,0,0.02,0c0,0,0,0,0.01,0c0.01,0,0.01,0,0.02,0c0,0,0,0,0,0c0.01,0,0.01,0,0.02,0c0,0,0,0,0,0c0.02,0,0.04,0,0.06-0.01
		c0,0,0,0,0,0c0.01,0,0.02,0,0.03,0c0,0,0.01,0,0.01,0c0,0,0.01,0,0.02,0c0,0,0.01,0,0.01,0c0,0,0.01,0,0.02,0c0,0,0.01,0,0.01,0
		c0,0,0.01,0,0.02,0c0,0,0.01,0,0.01,0c0.01,0,0.01,0,0.02,0c0,0,0.01,0,0.01,0c0.01,0,0.02,0,0.03,0c0,0,0,0,0.01,0
		c0.01,0,0.01,0,0.02,0c0,0,0.01,0,0.01,0c0,0,0.01,0,0.02,0c0,0,0.01,0,0.01,0c0,0,0.01,0,0.02,0c0,0,0.01,0,0.01,0
		c0,0,0.01,0,0.01,0c0,0,0.01,0,0.01,0c0,0,0.01,0,0.02,0c0,0,0.01,0,0.01,0c0.01,0,0.01,0,0.02,0c0,0,0.01,0,0.01,0
		c0.01,0,0.02,0,0.03,0c0,0,0.01,0,0.01,0c0,0,0.01,0,0.01,0c0,0,0.01,0,0.01,0c0,0,0.01,0,0.01,0c0,0,0.01,0,0.01,0
		c0,0,0.01,0,0.01,0c0.01,0,0.01,0,0.02,0c0,0,0.01,0,0.01,0c0.01,0,0.01,0,0.02,0c0,0,0,0,0.01,0c0.03,0,0.06-0.01,0.09-0.01
		c0,0,0,0,0.01,0c0.01,0,0.01,0,0.02,0c0,0,0,0,0.01,0c0.01,0,0.01,0,0.02,0c0,0,0,0,0.01,0c0.01,0,0.01,0,0.02,0c0,0,0,0,0,0
		c0.01,0,0.01,0,0.02,0l0,0c0.03,0,0.06-0.01,0.1-0.01c0,0,0,0,0,0c0.01,0,0.01,0,0.02,0l0,0c0.01,0,0.01,0,0.02,0c0,0,0,0,0,0
		c1.72-0.22,3.43-0.49,5.11-0.82L89.21,146.62L89.21,146.62z M112.98,137.35c-3.65,2.23-7.51,4.14-11.48,5.69l0.36,0.93
		c4.06-1.58,7.95-3.52,11.63-5.76L112.98,137.35L112.98,137.35z M132.12,120.47c-2.66,3.34-5.63,6.46-8.83,9.28l0.66,0.75
		c0.42-0.37,0.83-0.74,1.24-1.12l0,0c0.06-0.06,0.12-0.11,0.18-0.17c0,0,0,0,0,0c0.01-0.01,0.01-0.01,0.02-0.02l0,0
		c0.01-0.01,0.01-0.01,0.02-0.02l0,0c0.01-0.01,0.01-0.01,0.02-0.02c0,0,0,0,0,0c0.01,0,0.01-0.01,0.02-0.01c0,0,0,0,0,0
		c0.03-0.03,0.06-0.06,0.09-0.08l0,0c0.01,0,0.01-0.01,0.02-0.01c0,0,0,0,0,0c0,0,0.01-0.01,0.01-0.01c0,0,0,0,0.01-0.01
		c0,0,0.01-0.01,0.01-0.01c0,0,0,0,0.01-0.01c0,0,0.01-0.01,0.01-0.01c0,0,0,0,0.01-0.01c0,0,0.01-0.01,0.01-0.01c0,0,0,0,0.01-0.01
		c0,0,0.01-0.01,0.01-0.01c0,0,0.01,0,0.01-0.01c0,0,0.01-0.01,0.01-0.01c0,0,0.01-0.01,0.01-0.01c0,0,0.01-0.01,0.01-0.01
		c0,0,0.01,0,0.01-0.01c0,0,0.01-0.01,0.01-0.01c0,0,0,0,0,0c0.01-0.01,0.02-0.02,0.02-0.02c0,0,0.01-0.01,0.01-0.01
		c0,0,0.01-0.01,0.01-0.01c0,0,0.01-0.01,0.01-0.01c0,0,0.01-0.01,0.01-0.01c0,0,0.01-0.01,0.01-0.01c0,0,0.01-0.01,0.01-0.01
		c0,0,0.01-0.01,0.01-0.01c0,0,0.01-0.01,0.01-0.01c0,0,0.01-0.01,0.01-0.01c0,0,0.01-0.01,0.01-0.01c0,0,0.01-0.01,0.01-0.01
		c0,0,0.01-0.01,0.01-0.01c0,0,0.01-0.01,0.01-0.01c0,0,0.01-0.01,0.01-0.01c0,0,0.01-0.01,0.01-0.01c0,0,0.01-0.01,0.01-0.01
		c0.01,0,0.01-0.01,0.01-0.01c0,0,0.01,0,0.01-0.01c0.01,0,0.01-0.01,0.01-0.01c0,0,0,0,0.01-0.01c0.01-0.01,0.01-0.01,0.02-0.02
		c0,0,0,0,0,0c0.01-0.01,0.01-0.01,0.02-0.02c0,0,0,0,0.01-0.01c0.01,0,0.01-0.01,0.01-0.01c0,0,0,0,0.01-0.01
		c0.01,0,0.01-0.01,0.01-0.01c0,0,0,0,0.01-0.01c0,0,0.01-0.01,0.01-0.01c0,0,0.01,0,0.01-0.01c0,0,0.01-0.01,0.01-0.01
		c0,0,0.01-0.01,0.01-0.01c0,0,0.01-0.01,0.01-0.01c0,0,0.01-0.01,0.01-0.01c0,0,0.01-0.01,0.01-0.01c0,0,0.01,0,0.01-0.01
		c0,0,0.01-0.01,0.01-0.01c0,0,0,0,0.01-0.01c0.01,0,0.01-0.01,0.02-0.01c0,0,0,0,0,0c0.03-0.03,0.05-0.05,0.08-0.07c0,0,0,0,0,0
		c0.01,0,0.01-0.01,0.01-0.01c0,0,0,0,0,0c0.01,0,0.01-0.01,0.01-0.01c0,0,0,0,0.01-0.01c0,0,0.01-0.01,0.01-0.01c0,0,0,0,0,0
		c0.01,0,0.01-0.01,0.02-0.01c0,0,0,0,0,0c0.01-0.01,0.01-0.01,0.02-0.02c0,0,0,0,0,0c0.01-0.01,0.01-0.01,0.02-0.02c0,0,0,0,0,0
		c0.03-0.03,0.07-0.06,0.1-0.1c0,0,0,0,0,0c0.01-0.01,0.01-0.01,0.02-0.02c0,0,0,0,0,0c0.01-0.01,0.01-0.01,0.02-0.02c0,0,0,0,0,0
		c0.01-0.01,0.01-0.01,0.02-0.02c0,0,0,0,0,0c0.01-0.01,0.01-0.01,0.02-0.02c0,0,0,0,0,0c0.01-0.01,0.01-0.01,0.02-0.02c0,0,0,0,0,0
		c0.05-0.05,0.09-0.09,0.14-0.13c0,0,0,0,0,0c0.01-0.01,0.01-0.01,0.02-0.02c0,0,0,0,0,0c0.01-0.01,0.01-0.01,0.02-0.02c0,0,0,0,0,0
		c2.2-2.15,4.27-4.43,6.18-6.84L132.12,120.47L132.12,120.47z M144.29,98.04c-1.34,4.04-3.06,8-5.1,11.75l0.88,0.48
		c0.07-0.13,0.14-0.26,0.21-0.39c0,0,0,0,0,0c0-0.01,0.01-0.02,0.01-0.02c0,0,0,0,0,0c0.03-0.05,0.05-0.1,0.08-0.15c0,0,0,0,0,0
		c0-0.01,0.01-0.01,0.01-0.02c0,0,0,0,0,0c0-0.01,0.01-0.01,0.01-0.02c0,0,0,0,0,0c0-0.01,0.01-0.01,0.01-0.02c0,0,0,0,0-0.01
		c0-0.01,0.01-0.01,0.01-0.02c0,0,0,0,0-0.01c0-0.01,0.01-0.01,0.01-0.02c0,0,0,0,0-0.01c0-0.01,0.01-0.01,0.01-0.02c0,0,0,0,0,0
		c0-0.01,0.01-0.01,0.01-0.02c0,0,0,0,0,0c0-0.01,0.01-0.02,0.01-0.02c0,0,0-0.01,0.01-0.01c0,0,0-0.01,0.01-0.01
		c0,0,0-0.01,0.01-0.01c0,0,0-0.01,0.01-0.01c0,0,0-0.01,0.01-0.01c0,0,0-0.01,0.01-0.01c0,0,0-0.01,0.01-0.01c0,0,0-0.01,0.01-0.01
		c0,0,0-0.01,0.01-0.01c0,0,0,0,0-0.01c0,0,0-0.01,0.01-0.01c0,0,0-0.01,0-0.01c0,0,0.01-0.01,0.01-0.01c0,0,0-0.01,0-0.01
		c0-0.01,0.01-0.01,0.01-0.02c0,0,0,0,0,0c0.01-0.03,0.03-0.05,0.04-0.08c0,0,0,0,0,0c0-0.01,0.01-0.01,0.01-0.02c0,0,0,0,0-0.01
		c0-0.01,0.01-0.01,0.01-0.02c0,0,0,0,0-0.01c0-0.01,0.01-0.01,0.01-0.02c0,0,0,0,0,0c0-0.01,0.01-0.01,0.01-0.02c0,0,0,0,0,0
		c1.8-3.45,3.33-7.05,4.57-10.79L144.29,98.04L144.29,98.04z M148.97,72.76l-1,0.03c0.02,0.73,0.03,1.48,0.03,2.21
		c0,3.54-0.26,7.1-0.76,10.58l0.99,0.14c0.15-1.04,0.28-2.08,0.39-3.13c0,0,0,0,0,0c0-0.03,0.01-0.06,0.01-0.09c0,0,0,0,0,0
		c0-0.02,0-0.04,0.01-0.06c0,0,0,0,0,0c0-0.03,0.01-0.06,0.01-0.09c0,0,0,0,0,0c0-0.02,0-0.04,0.01-0.06c0,0,0,0,0,0
		c0-0.02,0-0.04,0.01-0.06l0,0c0-0.01,0-0.02,0-0.03c0,0,0,0,0,0c0-0.02,0-0.04,0.01-0.05c0,0,0,0,0,0c0-0.01,0-0.02,0-0.03
		c0,0,0,0,0,0c0-0.01,0-0.02,0-0.03c0,0,0,0,0,0c0-0.01,0-0.01,0-0.02c0,0,0,0,0,0c0-0.01,0-0.02,0-0.03c0,0,0,0,0,0
		c0-0.01,0-0.02,0-0.03c0,0,0,0,0-0.01c0-0.01,0-0.01,0-0.02c0,0,0,0,0,0c0-0.01,0-0.02,0-0.03c0,0,0,0,0,0c0-0.01,0-0.01,0-0.02
		c0,0,0,0,0,0c0-0.01,0-0.02,0-0.03c0,0,0,0,0,0c0-0.01,0-0.02,0-0.02c0,0,0-0.01,0-0.01c0-0.01,0-0.02,0-0.02c0,0,0,0,0,0
		c0-0.01,0-0.02,0-0.03c0,0,0,0,0-0.01c0,0,0-0.02,0-0.02c0,0,0,0,0-0.01c0-0.01,0-0.02,0-0.03c0,0,0,0,0,0c0-0.01,0-0.01,0-0.02
		c0,0,0,0,0-0.01c0-0.01,0-0.01,0-0.02c0,0,0,0,0,0c0-0.01,0-0.02,0-0.03c0,0,0-0.01,0-0.01c0,0,0-0.01,0-0.02c0,0,0-0.01,0-0.01
		c0-0.01,0-0.01,0-0.02c0,0,0,0,0-0.01c0,0,0-0.02,0-0.02c0,0,0-0.01,0-0.01c0,0,0-0.02,0-0.02c0,0,0,0,0-0.01c0-0.01,0-0.01,0-0.02
		c0,0,0-0.01,0-0.01c0,0,0-0.01,0-0.02c0,0,0-0.01,0-0.01c0-0.01,0-0.02,0-0.02c0,0,0,0,0-0.01c0,0,0-0.01,0-0.02c0,0,0-0.01,0-0.01
		c0,0,0-0.02,0-0.02c0,0,0,0,0-0.01c0-0.01,0-0.02,0-0.02c0,0,0-0.01,0-0.01c0,0,0-0.01,0-0.02c0,0,0-0.01,0-0.01
		c0-0.01,0-0.01,0-0.02c0,0,0-0.01,0-0.01c0,0,0-0.01,0-0.02c0,0,0-0.01,0-0.01c0,0,0-0.02,0-0.02c0,0,0,0,0,0c0-0.01,0-0.02,0-0.02
		c0,0,0-0.01,0-0.01c0,0,0-0.01,0-0.02c0,0,0-0.01,0-0.01c0-0.01,0-0.01,0-0.02c0,0,0-0.01,0-0.01c0,0,0-0.01,0-0.02
		c0,0,0-0.01,0-0.01c0,0,0-0.02,0-0.02c0,0,0,0,0-0.01c0-0.01,0-0.01,0-0.02c0,0,0-0.01,0-0.01c0,0,0-0.01,0-0.02c0,0,0-0.01,0-0.01
		c0-0.01,0-0.01,0-0.02c0,0,0-0.01,0-0.01c0,0,0-0.01,0-0.02c0,0,0-0.01,0-0.01c0,0,0-0.01,0-0.02c0,0,0-0.01,0-0.01
		c0,0,0-0.01,0-0.02c0,0,0-0.01,0-0.01c0,0,0-0.01,0-0.02c0,0,0-0.01,0-0.01c0-0.01,0-0.01,0-0.02c0,0,0-0.01,0-0.01
		c0,0,0-0.01,0-0.02c0,0,0-0.01,0-0.01c0,0,0-0.01,0-0.02c0-0.01,0-0.01,0-0.02c0,0,0-0.01,0-0.02c0,0,0-0.01,0-0.01
		c0,0,0-0.01,0-0.02c0,0,0-0.01,0-0.01c0-0.01,0-0.01,0-0.02c0,0,0-0.01,0-0.01c0,0,0-0.01,0-0.01c0,0,0-0.01,0-0.01
		c0,0,0-0.01,0-0.02c0-0.01,0-0.01,0-0.02c0,0,0-0.01,0-0.01c0,0,0-0.01,0-0.01c0,0,0-0.01,0-0.01c0,0,0-0.01,0-0.01
		c0-0.01,0-0.01,0-0.02c0,0,0-0.01,0-0.01c0,0,0-0.01,0-0.01c0,0,0-0.01,0-0.01c0,0,0-0.01,0-0.02c0-0.01,0-0.01,0-0.02
		c0,0,0-0.01,0-0.02c0,0,0-0.01,0-0.01c0,0,0-0.01,0-0.01c0,0,0-0.01,0-0.01c0-0.01,0-0.02,0-0.02c0,0,0-0.01,0-0.01
		c0,0,0-0.01,0-0.02c0,0,0-0.01,0-0.01c0,0,0-0.02,0-0.02c0,0,0-0.01,0-0.01c0,0,0-0.01,0-0.02c0,0,0-0.01,0-0.01c0,0,0-0.01,0-0.02
		c0,0,0-0.01,0-0.01c0-0.01,0-0.02,0-0.02c0,0,0-0.01,0-0.01c0,0,0-0.01,0-0.01c0,0,0-0.01,0-0.01c0,0,0-0.01,0-0.02
		c0-0.01,0-0.01,0-0.02c0,0,0-0.01,0-0.01c0,0,0-0.01,0-0.01c0,0,0-0.01,0-0.01c0,0,0-0.01,0-0.01c0-0.01,0-0.02,0-0.02
		c0,0,0-0.01,0-0.01c0,0,0-0.01,0-0.01c0,0,0-0.01,0-0.01c0-0.01,0-0.02,0-0.02c0,0,0-0.01,0-0.01c0,0,0-0.01,0-0.02
		c0,0,0-0.01,0-0.01c0,0,0-0.01,0-0.01c0,0,0-0.01,0-0.01c0,0,0-0.01,0-0.02c0,0,0-0.01,0-0.01c0,0,0-0.01,0-0.01c0,0,0-0.01,0-0.01
		c0,0,0-0.01,0-0.02c0-0.01,0-0.01,0-0.02c0,0,0-0.01,0-0.01c0,0,0-0.01,0-0.01c0,0,0-0.01,0-0.01c0-0.01,0-0.01,0-0.02
		c0,0,0-0.01,0-0.02c0,0,0-0.01,0-0.01c0,0,0-0.01,0-0.01c0,0,0-0.01,0-0.01c0,0,0-0.01,0-0.02c0,0,0-0.01,0-0.01c0,0,0-0.01,0-0.01
		c0,0,0-0.01,0-0.01c0,0,0-0.01,0-0.01c0,0,0-0.01,0-0.01c0,0,0-0.01,0-0.02c0,0,0-0.01,0-0.01c0,0,0-0.01,0-0.01c0,0,0-0.01,0-0.01
		c0,0,0-0.01,0-0.02c0-0.01,0-0.01,0-0.02c0,0,0-0.01,0-0.01c0,0,0-0.01,0-0.01c0,0,0-0.01,0-0.01c0-0.01,0-0.01,0-0.02
		c0,0,0-0.01,0-0.02c0,0,0-0.01,0-0.01c0,0,0-0.01,0-0.01c0,0,0-0.01,0-0.01c0-0.01,0-0.02,0-0.02c0,0,0-0.01,0-0.01
		c0,0,0-0.01,0-0.01c0,0,0-0.01,0-0.01c0,0,0-0.01,0-0.02c0,0,0-0.01,0-0.01c0,0,0-0.02,0-0.02c0,0,0-0.01,0-0.01c0,0,0-0.01,0-0.01
		c0,0,0-0.01,0-0.01c0-0.01,0-0.02,0-0.02c0,0,0-0.01,0-0.01c0,0,0-0.01,0-0.01c0,0,0-0.01,0-0.01c0,0,0-0.01,0-0.01
		c0-0.01,0-0.01,0-0.02c0,0,0-0.01,0-0.01c0,0,0-0.01,0-0.01c0,0,0-0.01,0-0.01c0,0,0-0.01,0-0.01c0-0.01,0-0.02,0-0.02
		c0,0,0-0.01,0-0.01c0,0,0-0.01,0-0.01c0,0,0-0.01,0-0.01c0,0,0-0.01,0-0.01c0-0.01,0-0.01,0-0.02c0,0,0-0.01,0-0.02
		c0,0,0-0.01,0-0.01c0,0,0-0.01,0-0.01c0,0,0-0.01,0-0.01c0-0.01,0-0.01,0-0.02c0-0.01,0-0.01,0-0.02c0,0,0-0.01,0-0.01
		c0,0,0-0.01,0-0.01c0,0,0-0.01,0-0.01c0-0.01,0-0.01,0-0.02c0,0,0-0.01,0-0.01c0,0,0-0.01,0-0.01c0,0,0-0.01,0-0.01
		c0,0,0-0.01,0-0.01c0-0.01,0-0.01,0-0.02c0,0,0-0.01,0-0.01c0,0,0-0.01,0-0.01c0,0,0-0.01,0-0.01c0,0,0-0.01,0-0.01
		c0-0.01,0-0.02,0-0.02c0,0,0-0.01,0-0.01c0-0.01,0-0.01,0-0.02c0,0,0-0.01,0-0.01c0-0.01,0-0.02,0-0.03l0,0c0,0,0-0.01,0-0.01
		c0,0,0-0.01,0-0.01c0,0,0-0.01,0-0.01c0,0,0-0.01,0-0.01c0-0.01,0-0.01,0-0.02c0,0,0-0.01,0-0.01c0,0,0-0.01,0-0.01
		c0,0,0-0.01,0-0.01c0-0.01,0-0.02,0-0.03c0,0,0,0,0-0.01c0-0.01,0-0.01,0-0.02c0,0,0-0.01,0-0.01c0,0,0-0.01,0-0.01
		c0,0,0-0.01,0-0.01c0-0.01,0-0.02,0-0.02c0,0,0-0.01,0-0.01c0,0,0-0.01,0-0.01c0,0,0-0.01,0-0.01c0,0,0-0.01,0-0.01
		c0-0.01,0-0.01,0-0.02c0,0,0-0.01,0-0.01c0,0,0-0.01,0-0.01c0,0,0-0.01,0-0.01c0,0,0-0.01,0-0.02c0,0,0-0.01,0-0.01
		c0,0,0-0.01,0-0.02c0,0,0-0.01,0-0.01c0,0,0-0.01,0-0.01c0-0.01,0-0.01,0-0.02c0,0,0-0.01,0-0.02c0,0,0-0.01,0-0.01
		c0,0,0-0.01,0-0.01c0,0,0-0.01,0-0.01c0,0,0-0.01,0-0.01c0-0.01,0-0.01,0-0.02c0,0,0-0.01,0-0.01c0,0,0-0.01,0-0.01
		c0,0,0-0.01,0-0.01c0,0,0-0.01,0-0.01c0-0.01,0-0.02,0-0.02c0,0,0-0.01,0-0.01c0,0,0-0.01,0-0.01c0,0,0-0.01,0-0.01
		c0,0,0-0.01,0-0.01c0-0.01,0-0.01,0-0.02c0,0,0-0.01,0-0.01c0,0,0-0.01,0-0.01c0,0,0-0.01,0-0.02c0-0.01,0-0.01,0-0.02
		c0,0,0-0.01,0-0.02c0,0,0-0.01,0-0.01c0,0,0-0.01,0-0.01c0,0,0-0.01,0-0.01c0,0,0-0.01,0-0.02c0,0,0-0.01,0-0.01c0,0,0-0.01,0-0.02
		c0,0,0-0.01,0-0.01c0,0,0-0.01,0-0.01c0,0,0-0.01,0-0.01c0,0,0-0.01,0-0.02c0,0,0-0.01,0-0.01c0,0,0-0.01,0-0.01c0,0,0-0.01,0-0.01
		c0-0.01,0-0.02,0-0.02c0,0,0-0.01,0-0.01c0,0,0-0.01,0-0.02c0,0,0-0.01,0-0.01c0,0,0-0.01,0-0.02c0,0,0-0.01,0-0.01
		c0-0.01,0-0.01,0-0.02c0,0,0-0.01,0-0.01c0,0,0-0.01,0-0.02c0,0,0-0.01,0-0.01c0-0.01,0-0.01,0-0.02c0,0,0-0.01,0-0.01
		c0,0,0-0.01,0-0.02c0,0,0-0.01,0-0.01c0,0,0-0.01,0-0.02c0,0,0-0.01,0-0.01c0-0.01,0-0.02,0-0.02c0,0,0-0.01,0-0.01
		c0,0,0-0.01,0-0.02c0,0,0-0.01,0-0.01c0-0.01,0-0.01,0-0.02c0,0,0-0.01,0-0.01c0,0,0-0.01,0-0.02c0,0,0-0.01,0-0.01
		c0,0,0-0.01,0-0.02c0,0,0-0.01,0-0.01c0,0,0-0.02,0-0.02c0,0,0-0.01,0-0.01c0,0,0-0.01,0-0.02c0,0,0-0.01,0-0.01
		c0-0.01,0-0.01,0-0.02c0,0,0-0.01,0-0.01c0,0,0-0.01,0-0.02c0,0,0-0.01,0-0.01c0,0,0-0.01,0-0.02c0,0,0-0.01,0-0.01
		c0-0.01,0-0.01,0-0.02c0,0,0-0.01,0-0.01c0,0,0-0.01,0-0.02c0,0,0-0.01,0-0.01c0-0.01,0-0.01,0-0.02c0,0,0-0.01,0-0.01
		c0,0,0-0.01,0-0.02c0,0,0-0.01,0-0.01c0,0,0-0.01,0-0.02c0,0,0-0.01,0-0.01c0,0,0-0.01,0-0.02c0,0,0-0.01,0-0.01c0,0,0-0.01,0-0.02
		c0,0,0-0.01,0-0.01c0-0.01,0-0.01,0-0.02c0,0,0-0.01,0-0.01c0,0,0-0.01,0-0.02c0,0,0-0.01,0-0.01c0,0,0-0.02,0-0.02
		c0,0,0-0.01,0-0.01c0,0,0-0.02,0-0.02c0,0,0-0.01,0-0.01c0,0,0-0.01,0-0.02c0,0,0-0.01,0-0.01c0-0.01,0-0.01,0-0.02
		c0,0,0-0.01,0-0.01c0,0,0-0.01,0-0.02c0,0,0-0.01,0-0.01c0,0,0-0.01,0-0.02c0,0,0-0.01,0-0.01c0,0,0-0.01,0-0.02c0,0,0-0.01,0-0.01
		c0,0,0-0.01,0-0.02c0,0,0-0.01,0-0.01c0-0.01,0-0.01,0-0.02c0,0,0-0.01,0-0.01c0,0,0-0.01,0-0.02c0,0,0-0.01,0-0.01
		c0-0.01,0-0.02,0-0.02c0,0,0,0,0,0c0-0.01,0-0.01,0-0.02c0,0,0-0.01,0-0.01c0,0,0-0.01,0-0.02c0,0,0-0.01,0-0.01
		c0-0.01,0-0.02,0-0.03c0,0,0-0.01,0-0.01c0,0,0-0.01,0-0.02c0,0,0-0.01,0-0.01c0-0.01,0-0.02,0-0.03c0,0,0,0,0-0.01
		c0,0,0-0.02,0-0.02c0,0,0-0.01,0-0.01c0,0,0-0.02,0-0.02c0,0,0,0,0-0.01c0-0.01,0-0.02,0-0.03c0,0,0,0,0-0.01c0,0,0-0.01,0-0.02
		c0,0,0-0.01,0-0.01c0-0.01,0-0.02,0-0.03c0,0,0,0,0,0c0-0.01,0-0.02,0-0.03c0,0,0,0,0-0.01c0-0.01,0-0.01,0-0.02c0,0,0,0,0,0
		c0-0.01,0-0.02,0-0.03c0,0,0,0,0-0.01c0,0,0-0.02,0-0.02c0,0,0,0,0-0.01c0-0.01,0-0.02,0-0.03c0,0,0,0,0,0c0-0.01,0-0.01,0-0.02
		c0,0,0-0.01,0-0.01c0,0,0-0.02,0-0.02c0,0,0,0,0-0.01c0-0.01,0-0.02,0-0.03c0,0,0,0,0-0.01c0,0,0-0.02,0-0.02c0,0,0,0,0-0.01
		c0-0.01,0-0.02,0-0.03c0,0,0,0,0,0c0-0.01,0-0.02,0-0.02c0,0,0-0.01,0-0.01c0,0,0-0.01,0-0.02c0,0,0,0,0-0.01c0-0.01,0-0.02,0-0.03
		c0,0,0,0,0-0.01c0,0,0-0.02,0-0.02c0,0,0-0.01,0-0.01c0-0.01,0-0.02,0-0.03c0,0,0-0.01,0-0.01c0,0,0-0.01,0-0.02c0,0,0-0.01,0-0.01
		c0,0,0-0.02,0-0.02c0,0,0,0,0-0.01c0-0.01,0-0.02,0-0.03c0,0,0,0,0-0.01c0,0,0-0.02,0-0.02c0,0,0,0,0-0.01c0-0.01,0-0.02,0-0.03
		c0,0,0,0,0,0c0-0.01,0-0.01,0-0.02c0,0,0-0.01,0-0.01c0-0.01,0-0.01,0-0.02c0,0,0,0,0,0c0-0.01,0-0.02,0-0.03c0,0,0-0.01,0-0.01
		c0,0,0-0.02,0-0.02c0,0,0,0,0-0.01c0-0.01,0-0.02,0-0.03c0,0,0,0,0-0.01c0,0,0-0.02,0-0.02c0,0,0-0.01,0-0.01c0-0.01,0-0.01,0-0.02
		c0,0,0,0,0,0c0-0.01,0-0.02,0-0.03c0,0,0,0,0-0.01c0,0,0-0.02,0-0.02c0,0,0,0,0-0.01c0-0.01,0-0.02,0-0.03c0,0,0,0,0,0
		c0-0.01,0-0.01,0-0.02c0,0,0-0.01,0-0.01c0-0.01,0-0.02,0-0.02c0,0,0,0,0,0c0-0.01,0-0.02,0-0.03c0,0,0,0,0-0.01c0,0,0-0.02,0-0.02
		c0,0,0,0,0-0.01c0-0.01,0-0.02,0-0.03c0,0,0,0,0-0.01c0-0.01,0-0.02,0-0.02c0,0,0,0,0-0.01c0-0.01,0-0.02,0-0.03c0,0,0,0,0,0
		c0-0.01,0-0.02,0-0.03c0,0,0,0,0-0.01c0,0,0-0.02,0-0.02c0,0,0,0,0-0.01c0-0.01,0-0.02,0-0.03c0,0,0,0,0-0.01c0,0,0-0.02,0-0.02
		c0,0,0-0.01,0-0.01c0-0.01,0-0.02,0-0.03c0,0,0,0,0,0c0-0.01,0-0.02,0-0.03c0,0,0-0.01,0-0.01c0-0.01,0-0.01,0-0.02c0,0,0,0,0-0.01
		c0-0.01,0-0.02,0-0.03c0,0,0,0,0-0.01c0,0,0-0.02,0-0.02c0,0,0,0,0-0.01c0-0.01,0-0.02,0-0.03l0,0l0,0c0-0.01,0-0.02,0-0.03
		c0,0,0-0.01,0-0.01c0-0.01,0-0.01,0-0.02c0,0,0-0.01,0-0.01c0-0.01,0-0.01,0-0.02c0,0,0-0.01,0-0.01c0-0.01,0-0.01,0-0.02
		c0,0,0-0.01,0-0.01c0-0.01,0-0.01,0-0.02c0,0,0-0.01,0-0.01c0-0.01,0-0.02,0-0.03c0,0,0-0.01,0-0.01c0-0.01,0-0.02,0-0.03
		c0,0,0-0.01,0-0.01c0-0.01,0-0.01,0-0.02c0,0,0-0.01,0-0.01c0-0.01,0-0.01,0-0.02c0,0,0-0.01,0-0.01c0-0.01,0-0.01,0-0.02
		c0,0,0-0.01,0-0.01c0-0.01,0-0.01,0-0.02c0,0,0-0.01,0-0.01c0-0.01,0-0.02,0-0.03c0,0,0-0.01,0-0.01c0-0.01,0-0.01,0-0.02
		c0,0,0-0.01,0-0.01c0-0.01,0-0.01,0-0.02c0,0,0-0.01,0-0.01c0-0.01,0-0.01,0-0.02c0,0,0-0.01,0-0.01c0-0.01,0-0.01,0-0.02
		c0,0,0-0.01,0-0.02c0-0.01,0-0.01,0-0.02c0,0,0-0.01,0-0.01c0-0.01,0-0.02,0-0.03c0,0,0-0.01,0-0.01c0-0.01,0-0.01,0-0.02
		c0,0,0-0.01,0-0.01c0-0.01,0-0.01,0-0.02c0,0,0-0.01,0-0.01c0-0.01,0-0.01,0-0.02c0,0,0-0.01,0-0.01c0-0.01,0-0.01,0-0.02
		c0,0,0-0.01,0-0.01c0-0.01,0-0.02,0-0.03c0,0,0,0,0-0.01c0-0.01,0-0.02,0-0.03c0,0,0-0.01,0-0.01c0-0.01,0-0.01,0-0.02
		c0,0,0-0.01,0-0.01c0-0.01,0-0.01,0-0.02c0,0,0-0.01,0-0.01c0-0.01,0-0.01,0-0.02c0,0,0-0.01,0-0.01c0-0.01,0-0.02,0-0.03
		c0,0,0-0.01,0-0.01c0-0.01,0-0.02,0-0.03c0,0,0,0,0-0.01c0-0.01,0-0.02,0-0.03c0,0,0-0.01,0-0.01c0-0.01,0-0.02,0-0.02
		c0,0,0-0.01,0-0.01c0-0.01,0-0.01,0-0.02c0,0,0-0.01,0-0.01c0-0.01,0-0.02,0-0.02c0,0,0-0.01,0-0.01c0-0.02,0-0.04,0-0.07
		c0,0,0,0,0,0c0-0.01,0-0.02,0-0.03c0,0,0-0.01,0-0.01c0-0.01,0-0.02,0-0.03c0,0,0-0.01,0-0.01c0-0.01,0-0.02,0-0.03c0,0,0,0,0-0.01
		c0-0.01,0-0.02,0-0.03l0,0c0-0.03,0-0.07,0-0.1c0,0,0,0,0,0c0-0.01,0-0.02,0-0.03l0,0C148.98,73.25,148.97,73,148.97,72.76
		L148.97,72.76z M143.7,47.43l-0.93,0.37c1.59,3.96,2.84,8.08,3.7,12.26l0.98-0.2c-0.18-0.87-0.38-1.74-0.59-2.61l0,0
		c0-0.01,0-0.02-0.01-0.03c0,0,0,0,0,0c0-0.01,0-0.02-0.01-0.02c0,0,0,0,0,0c0-0.01,0-0.02-0.01-0.02c0,0,0,0,0,0
		c-0.01-0.04-0.02-0.07-0.03-0.11c0,0,0,0,0,0c0-0.01,0-0.02-0.01-0.03c0,0,0,0,0,0c0-0.01,0-0.01-0.01-0.02c0,0,0,0,0-0.01
		c0,0,0-0.02-0.01-0.02c0,0,0,0,0-0.01c0-0.01,0-0.01-0.01-0.02c0,0,0,0,0-0.01c0-0.01,0-0.01-0.01-0.02c0,0,0,0,0,0
		c0-0.01,0-0.02-0.01-0.03c0,0,0,0,0,0c0-0.02-0.01-0.04-0.01-0.05c0,0,0-0.01,0-0.01c0-0.01,0-0.01,0-0.02c0,0,0-0.01,0-0.01
		c0,0,0-0.01,0-0.02c0,0,0-0.01,0-0.01c0,0,0-0.01,0-0.02c0,0,0-0.01,0-0.01c0,0,0-0.01,0-0.02c0,0,0-0.01,0-0.01c0,0,0-0.01,0-0.02
		c0,0,0-0.01,0-0.01c0-0.01,0-0.02-0.01-0.02c0,0,0,0,0,0c0-0.01,0-0.02-0.01-0.03c0,0,0,0,0,0c0-0.01,0-0.01-0.01-0.02
		c0,0,0-0.01,0-0.01c0-0.01,0-0.01,0-0.02c0,0,0-0.01,0-0.01c0,0,0-0.01,0-0.01c0,0,0-0.01,0-0.01c0,0,0-0.01,0-0.01
		c0,0,0-0.01,0-0.01c0,0,0-0.01,0-0.01c0,0,0-0.01,0-0.01c0,0,0-0.01,0-0.01c0,0,0-0.01,0-0.01c0,0,0-0.01,0-0.01c0,0,0-0.01,0-0.01
		c0,0,0-0.01,0-0.01c0-0.01,0-0.01-0.01-0.02c0,0,0-0.01,0-0.01c0,0,0-0.01,0-0.01c0,0,0-0.01,0-0.01c0,0,0-0.01,0-0.01
		c0,0,0-0.01,0-0.01c0,0,0-0.01,0-0.01c0,0,0-0.01,0-0.01c0-0.01,0-0.01,0-0.01c0,0,0-0.01,0-0.01c0,0,0-0.01,0-0.01
		c0,0,0-0.01,0-0.01c0,0,0-0.01,0-0.01c0,0,0-0.01,0-0.01c0,0,0-0.01,0-0.01c0,0,0-0.01,0-0.01c0-0.01-0.01-0.03-0.01-0.04l0,0
		c0-0.01,0-0.01,0-0.02c0,0,0-0.01,0-0.01c0-0.01,0-0.01,0-0.02c0,0,0-0.01,0-0.01c0-0.01,0-0.01,0-0.02c0,0,0-0.01,0-0.01
		c0-0.01,0-0.01,0-0.02c0,0,0,0,0-0.01c0-0.01,0-0.01,0-0.02c0,0,0-0.01,0-0.01c0-0.01,0-0.01,0-0.02c0,0,0-0.01,0-0.01
		c0-0.01,0-0.01,0-0.02l0,0c-0.01-0.02-0.01-0.04-0.02-0.07l0,0c0-0.01,0-0.01-0.01-0.02c0,0,0,0,0-0.01c0-0.01,0-0.01,0-0.02
		c0,0,0-0.01,0-0.01c0-0.01,0-0.01,0-0.02c0,0,0,0,0-0.01c0-0.01,0-0.01-0.01-0.02c0,0,0,0,0-0.01c0-0.01,0-0.01-0.01-0.02
		c0,0,0,0,0,0c-0.01-0.04-0.02-0.08-0.03-0.12l0,0c0-0.01,0-0.01-0.01-0.02c0,0,0,0,0,0c0-0.01,0-0.01-0.01-0.02l0,0
		c0-0.01,0-0.02-0.01-0.02l0,0c0-0.01,0-0.02-0.01-0.02c0,0,0,0,0,0c-0.01-0.05-0.03-0.1-0.04-0.14c0,0,0,0,0,0
		c0-0.01,0-0.01-0.01-0.02l0,0c0-0.01,0-0.01-0.01-0.02l0,0c0-0.01,0-0.01-0.01-0.02c0,0,0,0,0,0c-0.01-0.05-0.03-0.1-0.04-0.15l0,0
		c0-0.01,0-0.02-0.01-0.02l0,0c0-0.01,0-0.02-0.01-0.02l0,0c0-0.01,0-0.02-0.01-0.02c0,0,0,0,0,0c-0.31-1.11-0.64-2.21-1-3.3l0,0
		c0-0.01-0.01-0.02-0.01-0.02v0c0-0.01-0.01-0.02-0.01-0.02l0,0c-0.02-0.06-0.04-0.13-0.06-0.19l0,0c-0.02-0.06-0.04-0.13-0.06-0.19
		l0,0c0-0.01-0.01-0.02-0.01-0.02l0,0c0-0.01-0.01-0.02-0.01-0.02l0,0c-0.05-0.14-0.09-0.27-0.14-0.41l0,0
		c0-0.01-0.01-0.02-0.01-0.02l0,0c0-0.01-0.01-0.01-0.01-0.02l0,0c-0.02-0.06-0.04-0.13-0.07-0.19l0,0c0-0.01-0.01-0.02-0.01-0.02
		l0,0c-0.02-0.06-0.04-0.13-0.07-0.19l0,0c0-0.01-0.01-0.01-0.01-0.02l0,0c0-0.01-0.01-0.01-0.01-0.02c0,0,0,0,0,0
		c-0.02-0.06-0.04-0.13-0.07-0.19l0,0c-0.02-0.06-0.04-0.13-0.07-0.19c0,0,0,0,0,0c0-0.01-0.01-0.02-0.01-0.02l0,0
		c-0.03-0.07-0.05-0.14-0.08-0.21l0,0c-0.05-0.14-0.1-0.28-0.16-0.43l0,0C144.21,48.75,143.96,48.09,143.7,47.43L143.7,47.43z
		 M130,25.49l-0.74,0.67c2.86,3.17,5.45,6.61,7.71,10.23l0.85-0.53c-0.83-1.32-1.7-2.62-2.6-3.89l0,0
		c-0.04-0.05-0.08-0.11-0.12-0.16l0,0c0-0.01-0.01-0.01-0.01-0.02c0,0,0,0,0,0c0-0.01-0.01-0.01-0.01-0.02c0,0,0,0,0,0
		c0-0.01-0.01-0.01-0.01-0.02l0,0c0-0.01-0.01-0.01-0.01-0.02c0,0,0,0,0,0c0-0.01-0.01-0.01-0.01-0.02l0,0
		c-0.03-0.05-0.07-0.09-0.1-0.14c0,0,0,0,0,0c0-0.01-0.01-0.01-0.01-0.02c0,0,0,0,0,0c0-0.01-0.01-0.01-0.01-0.02l0,0
		c0-0.01-0.01-0.01-0.01-0.02l0,0c0-0.01-0.01-0.01-0.01-0.02c0,0,0,0,0,0c0-0.01-0.01-0.01-0.01-0.02l0,0
		c-0.03-0.04-0.06-0.08-0.09-0.12l0,0c0-0.01-0.01-0.01-0.01-0.02c0,0,0,0,0-0.01c0-0.01-0.01-0.01-0.01-0.02c0,0,0,0,0-0.01
		c0-0.01-0.01-0.01-0.01-0.02c0,0,0,0,0-0.01c0-0.01-0.01-0.01-0.01-0.02c0,0,0,0,0-0.01c0-0.01-0.01-0.01-0.01-0.02c0,0,0,0,0-0.01
		c0-0.01-0.01-0.01-0.01-0.02l0,0c0-0.01-0.01-0.01-0.01-0.02l0,0c-0.01-0.02-0.03-0.04-0.04-0.06c0,0,0,0,0,0
		c0-0.01-0.01-0.01-0.01-0.02c0,0,0,0,0-0.01c0-0.01-0.01-0.01-0.01-0.02c0,0,0,0,0,0c0,0-0.01-0.01-0.01-0.02c0,0,0,0,0-0.01
		c0,0-0.01-0.01-0.01-0.01c0,0,0,0,0-0.01c0,0-0.01-0.01-0.01-0.01c0,0,0,0-0.01-0.01c0,0-0.01-0.01-0.01-0.01c0,0,0-0.01-0.01-0.01
		c0,0-0.01-0.01-0.01-0.01c0,0,0-0.01-0.01-0.01c0,0-0.01-0.01-0.01-0.01c0,0,0,0,0-0.01c0-0.01-0.01-0.01-0.01-0.02c0,0,0,0,0,0
		c-0.01-0.02-0.03-0.04-0.04-0.06l0-0.01c0,0-0.01-0.01-0.01-0.01c0,0,0-0.01-0.01-0.01c0,0-0.01-0.01-0.01-0.01
		c0,0,0-0.01-0.01-0.01c0,0-0.01-0.01-0.01-0.01c0,0,0-0.01-0.01-0.01c0,0-0.01-0.01-0.01-0.01c0,0,0-0.01-0.01-0.01
		c0,0-0.01-0.01-0.01-0.01c0,0,0-0.01-0.01-0.01c0,0-0.01-0.01-0.01-0.01c0,0,0-0.01-0.01-0.01c0,0-0.01-0.01-0.01-0.01
		c0,0,0-0.01-0.01-0.01c0,0-0.01-0.01-0.01-0.01l0,0c-0.01-0.02-0.02-0.03-0.04-0.05c0,0,0-0.01-0.01-0.01c0,0-0.01-0.01-0.01-0.01
		c0,0-0.01-0.01-0.01-0.01c0,0-0.01-0.01-0.01-0.01c0,0-0.01-0.01-0.01-0.01c0,0,0-0.01-0.01-0.01c0,0-0.01-0.01-0.01-0.01
		c0,0,0-0.01-0.01-0.01c0,0-0.01-0.01-0.01-0.01c0,0-0.01-0.01-0.01-0.01c0,0-0.01-0.01-0.01-0.01c0,0-0.01-0.01-0.01-0.01
		c0,0-0.01-0.01-0.01-0.01c0,0-0.01-0.01-0.01-0.01c0,0-0.01-0.01-0.01-0.01c0,0,0-0.01-0.01-0.01c0-0.01-0.01-0.01-0.01-0.01
		c0,0,0,0-0.01-0.01c0-0.01-0.01-0.01-0.01-0.02c0,0,0,0,0-0.01c-0.01-0.01-0.01-0.01-0.02-0.02c0,0,0,0,0-0.01
		c0-0.01-0.01-0.01-0.01-0.02c0,0,0-0.01-0.01-0.01c0-0.01-0.01-0.01-0.01-0.01c0,0,0-0.01-0.01-0.01c0,0-0.01-0.01-0.01-0.01
		c0,0,0-0.01-0.01-0.01c0,0-0.01-0.01-0.01-0.01c0,0,0-0.01-0.01-0.01c0,0-0.01-0.01-0.01-0.01c0,0,0-0.01-0.01-0.01
		c0,0-0.01-0.01-0.01-0.01c0,0,0-0.01-0.01-0.01c0,0-0.01-0.01-0.01-0.01c0,0,0-0.01-0.01-0.01c0-0.01-0.01-0.01-0.01-0.02
		c0,0,0,0,0-0.01c0-0.01-0.01-0.01-0.01-0.02c0,0,0,0,0,0c-0.01-0.01-0.02-0.03-0.03-0.04c0,0,0,0,0-0.01
		c0-0.01-0.01-0.01-0.01-0.02c0,0,0,0,0-0.01c0-0.01-0.01-0.01-0.01-0.02c0,0,0,0-0.01-0.01c0,0-0.01-0.01-0.01-0.01
		c0,0,0-0.01-0.01-0.01c0,0-0.01-0.01-0.01-0.01c0,0,0-0.01-0.01-0.01c0,0-0.01-0.01-0.01-0.01c0,0,0,0-0.01-0.01
		c0,0-0.01-0.01-0.01-0.01c0,0,0,0-0.01-0.01c0-0.01-0.01-0.01-0.01-0.02c0,0,0,0,0-0.01c0-0.01-0.01-0.01-0.01-0.02c0,0,0,0,0-0.01
		c-0.02-0.02-0.03-0.04-0.05-0.06c0,0,0,0,0,0c-0.01-0.01-0.01-0.01-0.01-0.02c0,0,0,0,0,0c0-0.01-0.01-0.01-0.01-0.02
		c0,0,0,0,0-0.01c0-0.01-0.01-0.01-0.01-0.02c0,0,0,0,0-0.01c0-0.01-0.01-0.01-0.01-0.02c0,0,0,0,0,0c0-0.01-0.01-0.01-0.01-0.02
		c0,0,0,0,0-0.01c0-0.01-0.01-0.01-0.01-0.02c0,0,0,0,0-0.01c-0.01-0.01-0.01-0.01-0.01-0.02c0,0,0,0,0,0
		c-0.02-0.02-0.03-0.04-0.05-0.07c0,0,0,0,0,0c-0.01-0.01-0.01-0.01-0.02-0.02c0,0,0,0,0,0c0-0.01-0.01-0.01-0.01-0.02
		c0,0,0,0,0-0.01c0,0-0.01-0.01-0.01-0.01c0,0,0-0.01-0.01-0.01c0,0-0.01-0.01-0.01-0.01c0,0,0,0-0.01-0.01c0,0-0.01-0.01-0.01-0.01
		c0,0,0,0-0.01-0.01c0-0.01-0.01-0.01-0.01-0.02c0,0,0,0,0,0c-0.01-0.01-0.01-0.01-0.01-0.02c0,0,0,0,0,0
		c-0.02-0.03-0.04-0.06-0.07-0.09c0,0,0,0,0,0c-0.01-0.01-0.01-0.01-0.01-0.02c0,0,0,0,0,0c0-0.01-0.01-0.01-0.01-0.02
		c0,0,0,0,0-0.01c0-0.01-0.01-0.01-0.01-0.02c0,0,0,0,0-0.01c0,0-0.01-0.01-0.01-0.02c0,0,0,0-0.01-0.01c0,0-0.01-0.01-0.01-0.02
		c0,0,0,0,0-0.01c0-0.01-0.01-0.01-0.01-0.02c0,0,0,0,0,0c-0.01-0.01-0.01-0.01-0.01-0.02c0,0,0,0,0,0
		c-0.01-0.01-0.01-0.01-0.02-0.02c0,0,0,0,0,0c-0.02-0.02-0.03-0.04-0.05-0.06c0,0,0,0,0,0c-0.01-0.01-0.01-0.01-0.02-0.02
		c0,0,0,0,0,0c-0.01-0.01-0.01-0.01-0.01-0.02c0,0,0,0,0,0c-0.01-0.01-0.01-0.01-0.01-0.02c0,0,0,0,0,0
		c-0.01-0.01-0.01-0.01-0.01-0.02c0,0,0,0,0,0c0-0.01-0.01-0.01-0.01-0.02c0,0,0,0,0,0c-0.01-0.01-0.01-0.01-0.01-0.02c0,0,0,0,0,0
		c-0.01-0.01-0.01-0.01-0.02-0.02c0,0,0,0,0,0c-0.02-0.03-0.05-0.06-0.07-0.09c0,0,0,0,0,0c-0.01-0.01-0.01-0.01-0.01-0.02
		c0,0,0,0,0,0c0-0.01-0.01-0.01-0.01-0.02c0,0,0,0,0-0.01c0,0-0.01-0.01-0.01-0.02c0,0,0,0,0-0.01c0-0.01-0.01-0.01-0.01-0.02
		c0,0,0,0,0,0c-0.01-0.01-0.01-0.01-0.01-0.02c0,0,0,0,0,0c-0.01-0.01-0.01-0.01-0.02-0.02c0,0,0,0,0,0
		c-0.02-0.03-0.05-0.06-0.07-0.09c0,0,0,0,0,0c-0.01-0.01-0.01-0.01-0.01-0.02c0,0,0,0,0,0c0-0.01-0.01-0.01-0.01-0.02c0,0,0,0,0,0
		c-0.01-0.01-0.01-0.01-0.01-0.02c0,0,0,0,0,0c0-0.01-0.01-0.01-0.01-0.02c0,0,0,0,0-0.01c0-0.01-0.01-0.01-0.01-0.02
		c0,0,0,0,0-0.01c0-0.01-0.01-0.01-0.01-0.02c0,0,0,0,0,0c0-0.01-0.01-0.01-0.01-0.02c0,0,0,0,0,0c-0.01-0.01-0.01-0.01-0.02-0.02
		l0,0c-0.02-0.02-0.03-0.04-0.05-0.06c0,0,0,0,0,0c-0.01-0.01-0.01-0.01-0.01-0.02c0,0,0,0,0-0.01c0-0.01-0.01-0.01-0.01-0.02
		c0,0,0,0,0,0c0-0.01-0.01-0.01-0.01-0.02c0,0,0,0,0-0.01c0,0-0.01-0.01-0.01-0.02c0,0,0,0,0-0.01c0-0.01-0.01-0.01-0.01-0.02
		c0,0,0,0,0-0.01c-0.01-0.01-0.01-0.01-0.01-0.02c0,0,0,0,0,0c-0.01-0.01-0.01-0.01-0.02-0.02c0,0,0,0,0,0
		c-0.01-0.01-0.02-0.03-0.03-0.04c0,0,0,0,0,0c-0.01-0.01-0.01-0.01-0.02-0.02c0,0,0,0,0,0c0-0.01-0.01-0.01-0.01-0.02
		c0,0,0,0-0.01-0.01c0-0.01-0.01-0.01-0.01-0.02c0,0,0,0,0-0.01c0,0-0.01-0.01-0.01-0.01c0,0,0,0-0.01-0.01c0,0-0.01-0.01-0.01-0.02
		c0,0,0,0,0-0.01c0-0.01-0.01-0.01-0.01-0.01c0,0,0,0-0.01-0.01c0-0.01-0.01-0.01-0.01-0.02c0,0,0,0,0-0.01
		c0-0.01-0.01-0.01-0.01-0.02c0,0,0,0,0,0c-0.02-0.02-0.03-0.04-0.05-0.06c0,0,0,0,0,0c-0.01-0.01-0.01-0.01-0.01-0.02
		c0,0,0,0,0-0.01c0-0.01-0.01-0.01-0.01-0.02c0,0,0,0,0-0.01c0,0-0.01-0.01-0.01-0.01c0,0,0,0-0.01-0.01c0,0-0.01-0.01-0.01-0.01
		c0,0,0,0-0.01-0.01c0,0-0.01-0.01-0.01-0.01c0,0,0-0.01-0.01-0.01c0,0-0.01-0.01-0.01-0.01c0,0,0-0.01-0.01-0.01
		c0-0.01-0.01-0.01-0.01-0.01c0,0,0,0-0.01-0.01c0-0.01-0.01-0.01-0.01-0.02c0,0,0,0,0,0c0-0.01-0.01-0.01-0.01-0.02
		c0,0,0,0-0.01-0.01c-0.01-0.01-0.01-0.01-0.02-0.02c0,0,0,0-0.01-0.01c0-0.01-0.01-0.01-0.01-0.01c0,0,0-0.01-0.01-0.01
		c0-0.01-0.01-0.01-0.01-0.01c0,0,0-0.01-0.01-0.01c0,0-0.01-0.01-0.01-0.01c0,0-0.01-0.01-0.01-0.01c0,0-0.01-0.01-0.01-0.01
		c0,0-0.01-0.01-0.01-0.01c0,0-0.01-0.01-0.01-0.01c0,0,0-0.01-0.01-0.01c0,0-0.01-0.01-0.01-0.01c0,0,0-0.01-0.01-0.01
		c0,0-0.01-0.01-0.01-0.01c0,0-0.01-0.01-0.01-0.01c0,0-0.01-0.01-0.01-0.01c0,0,0-0.01-0.01-0.01c0-0.01-0.01-0.01-0.01-0.01
		c0,0,0,0-0.01-0.01c-0.01-0.01-0.01-0.01-0.02-0.02c0,0-0.01-0.01-0.01-0.01c0,0-0.01-0.01-0.01-0.01c0,0-0.01-0.01-0.01-0.01
		c0,0-0.01-0.01-0.01-0.01c0,0-0.01-0.01-0.01-0.01c0,0-0.01-0.01-0.01-0.01c0,0-0.01-0.01-0.01-0.01c0,0-0.01-0.01-0.01-0.01
		c0,0-0.01-0.01-0.01-0.01c0,0,0-0.01-0.01-0.01c0,0-0.01-0.01-0.01-0.01c0,0,0,0-0.01-0.01c0,0-0.01-0.01-0.01-0.01
		c0,0,0-0.01-0.01-0.01c0,0-0.01-0.01-0.01-0.01c0,0-0.01-0.01-0.01-0.01c0,0-0.01-0.01-0.01-0.01c0,0-0.01-0.01-0.01-0.01
		c0,0-0.01-0.01-0.01-0.01c0,0,0,0,0-0.01c-0.01-0.02-0.03-0.03-0.04-0.05c0,0,0,0,0-0.01c0,0-0.01-0.01-0.01-0.01c0,0,0,0,0,0
		c0,0-0.01-0.01-0.01-0.01c0,0,0-0.01-0.01-0.01c0,0-0.01-0.01-0.01-0.01c0,0,0,0-0.01-0.01c0,0-0.01-0.01-0.01-0.01
		c0,0,0,0-0.01-0.01c0,0-0.01-0.01-0.01-0.01c0,0,0,0-0.01-0.01c0,0-0.01-0.01-0.01-0.01c0,0-0.01-0.01-0.01-0.01
		c0,0-0.01-0.01-0.01-0.01c0,0,0,0,0-0.01c0-0.01-0.01-0.01-0.01-0.01l0,0c-0.03-0.03-0.05-0.06-0.08-0.09l0,0
		c0-0.01-0.01-0.01-0.01-0.02c0,0,0,0,0,0c0-0.01-0.01-0.01-0.01-0.02c0,0,0,0,0,0c0-0.01-0.01-0.01-0.01-0.02l0,0
		c0-0.01-0.01-0.01-0.01-0.02c0,0,0,0,0,0c0-0.01-0.01-0.01-0.01-0.02l0,0c-0.04-0.05-0.09-0.1-0.13-0.15l0,0
		c-0.01-0.01-0.02-0.03-0.03-0.04l0,0C130.83,26.42,130.42,25.96,130,25.49L130,25.49z M109.61,9.57l-0.47,0.88
		c3.76,2,7.38,4.34,10.75,6.97l0.62-0.79c-1.79-1.4-3.65-2.72-5.57-3.95c0,0,0,0,0,0c-0.01-0.01-0.01-0.01-0.02-0.01l0,0
		c-0.01-0.01-0.02-0.01-0.02-0.01c0,0,0,0,0,0c-0.05-0.04-0.11-0.07-0.16-0.1c0,0,0,0,0,0c-0.01,0-0.01-0.01-0.02-0.01c0,0,0,0,0,0
		c-0.01,0-0.01-0.01-0.02-0.01c0,0,0,0,0,0c-0.01,0-0.01-0.01-0.02-0.01c0,0,0,0,0,0c-0.05-0.03-0.09-0.06-0.14-0.09c0,0,0,0,0,0
		c-0.01,0-0.01-0.01-0.02-0.01c0,0,0,0,0,0c-0.01,0-0.01-0.01-0.02-0.01c0,0,0,0,0,0c-0.01,0-0.01-0.01-0.02-0.01c0,0,0,0,0,0
		c-0.01,0-0.01-0.01-0.02-0.01c0,0,0,0,0,0c-0.01,0-0.01-0.01-0.02-0.01c0,0,0,0,0,0c-0.01,0-0.01-0.01-0.02-0.01c0,0,0,0,0,0
		c-0.02-0.01-0.05-0.03-0.07-0.04c0,0,0,0,0,0c-0.01,0-0.01-0.01-0.02-0.01c0,0,0,0,0,0c-0.01,0-0.01-0.01-0.02-0.01c0,0,0,0-0.01,0
		c0,0-0.01-0.01-0.02-0.01c0,0,0,0-0.01,0c0,0-0.01-0.01-0.02-0.01c0,0,0,0-0.01,0c0,0-0.01-0.01-0.02-0.01c0,0,0,0-0.01,0
		c0,0-0.01-0.01-0.02-0.01c0,0-0.01,0-0.01,0c-0.01,0-0.01-0.01-0.01-0.01c0,0-0.01,0-0.01-0.01c-0.01,0-0.01-0.01-0.02-0.01
		c0,0,0,0-0.01,0c-0.01,0-0.01-0.01-0.02-0.01c0,0,0,0,0,0c-0.01,0-0.01-0.01-0.02-0.01c0,0,0,0-0.01,0c-0.01,0-0.01-0.01-0.02-0.01
		c0,0-0.01,0-0.01-0.01c-0.01,0-0.01-0.01-0.01-0.01c0,0-0.01,0-0.01-0.01c0,0-0.01-0.01-0.01-0.01c0,0-0.01,0-0.01-0.01
		c0,0-0.01-0.01-0.01-0.01c0,0-0.01,0-0.01-0.01c0,0-0.01-0.01-0.01-0.01c0,0-0.01,0-0.01-0.01c0,0-0.01-0.01-0.01-0.01
		c0,0-0.01,0-0.01-0.01c0,0-0.01-0.01-0.01-0.01c0,0-0.01,0-0.01-0.01c-0.01,0-0.01-0.01-0.01-0.01c0,0-0.01,0-0.01-0.01
		c-0.01,0-0.01-0.01-0.02-0.01c0,0,0,0-0.01,0c-0.01,0-0.01-0.01-0.02-0.01c0,0-0.01,0-0.01-0.01c0,0-0.01-0.01-0.01-0.01
		c0,0-0.01-0.01-0.01-0.01c0,0-0.01-0.01-0.01-0.01c0,0-0.01-0.01-0.01-0.01c0,0-0.01,0-0.01-0.01c0,0-0.01-0.01-0.01-0.01
		c0,0,0,0-0.01-0.01c0,0-0.01-0.01-0.01-0.01c0,0-0.01,0-0.01-0.01c0,0-0.01-0.01-0.01-0.01c0,0-0.01,0-0.01-0.01
		c0,0-0.01-0.01-0.01-0.01c0,0-0.01,0-0.01-0.01c0,0-0.01-0.01-0.01-0.01c0,0-0.01,0-0.01,0c0,0-0.01-0.01-0.01-0.01c0,0,0,0-0.01,0
		c-0.03-0.02-0.05-0.03-0.08-0.05l0,0c-0.01,0-0.01-0.01-0.02-0.01c0,0,0,0-0.01,0c-0.01,0-0.01-0.01-0.02-0.01c0,0-0.01,0-0.01,0
		c-0.01,0-0.01-0.01-0.02-0.01c0,0,0,0-0.01,0c-0.01,0-0.01-0.01-0.02-0.01c0,0,0,0,0,0c-0.01,0-0.01-0.01-0.02-0.01c0,0,0,0,0,0
		c-0.01,0-0.01-0.01-0.02-0.01l0,0c-0.04-0.03-0.09-0.05-0.13-0.08l0,0c-0.01,0-0.01-0.01-0.02-0.01c0,0,0,0,0,0
		c-0.01,0-0.01-0.01-0.02-0.01c0,0,0,0,0,0c-0.01,0-0.01-0.01-0.02-0.01l0,0c-0.01,0-0.01-0.01-0.02-0.01c0,0,0,0,0,0
		c-0.01,0-0.01-0.01-0.02-0.01l0,0c-0.01,0-0.01-0.01-0.02-0.01l0,0c-0.04-0.03-0.09-0.05-0.13-0.08c0,0,0,0,0,0
		c-0.01,0-0.01-0.01-0.02-0.01l0,0c-0.01,0-0.01-0.01-0.02-0.01l0,0c-0.01,0-0.01-0.01-0.02-0.01c0,0,0,0,0,0
		c-0.01,0-0.01-0.01-0.02-0.01l0,0c-0.06-0.03-0.12-0.07-0.17-0.1l0,0c-0.01,0-0.01-0.01-0.02-0.01l0,0c-0.01,0-0.01-0.01-0.02-0.01
		l0,0c-0.09-0.05-0.17-0.1-0.26-0.15l0,0C111.52,10.61,110.57,10.08,109.61,9.57L109.61,9.57z M84.98,1.67l-0.13,0.99
		c4.23,0.57,8.44,1.52,12.49,2.82l0.31-0.95c-0.61-0.2-1.22-0.38-1.84-0.56c0,0,0,0,0,0c-0.01,0-0.02,0-0.03-0.01c0,0,0,0,0,0
		c-0.05-0.01-0.09-0.03-0.13-0.04c0,0,0,0,0,0c-0.01,0-0.01,0-0.02-0.01c0,0,0,0-0.01,0c-0.01,0-0.01,0-0.02-0.01c0,0,0,0-0.01,0
		c-0.01,0-0.01,0-0.02-0.01c0,0,0,0,0,0c-0.01,0-0.02,0-0.02-0.01c0,0,0,0,0,0c-0.02-0.01-0.04-0.01-0.05-0.02c0,0,0,0,0,0
		c-0.01,0-0.02,0-0.02-0.01c0,0,0,0-0.01,0c-0.01,0-0.01,0-0.02-0.01c0,0-0.01,0-0.01,0c0,0-0.01,0-0.02-0.01c0,0-0.01,0-0.01,0
		c0,0-0.01,0-0.02-0.01c0,0-0.01,0-0.01,0c0,0-0.01,0-0.02-0.01c0,0,0,0-0.01,0c-0.01,0-0.01,0-0.02-0.01c0,0,0,0-0.01,0
		c-0.01,0-0.02,0-0.03-0.01c0,0,0,0,0,0c-0.01,0-0.01,0-0.02-0.01c0,0-0.01,0-0.01,0c0,0-0.01,0-0.01,0c0,0-0.01,0-0.01,0
		c0,0-0.01,0-0.01,0c0,0-0.01,0-0.01,0c0,0-0.01,0-0.01,0c0,0-0.01,0-0.01,0c0,0-0.01,0-0.01,0c0,0-0.01,0-0.01,0c0,0-0.01,0-0.01,0
		c0,0-0.01,0-0.01,0c0,0-0.01,0-0.01,0c-0.02-0.01-0.04-0.01-0.05-0.02c0,0-0.01,0-0.01,0c-0.01,0-0.01,0-0.02,0c0,0-0.01,0-0.01,0
		c-0.01,0-0.01,0-0.02,0c0,0-0.01,0-0.01,0c-0.01,0-0.01,0-0.02,0c0,0-0.01,0-0.01,0c0,0-0.01,0-0.01,0c0,0-0.01,0-0.01,0
		c-0.01,0-0.01,0-0.02,0c0,0-0.01,0-0.01,0c-0.01,0-0.01,0-0.02,0c0,0,0,0,0,0c-0.01,0-0.03-0.01-0.04-0.01c0,0,0,0,0,0
		c-0.01,0-0.01,0-0.02-0.01c0,0,0,0-0.01,0c-0.01,0-0.01,0-0.02-0.01c0,0,0,0-0.01,0c-0.01,0-0.01,0-0.02,0c0,0-0.01,0-0.01,0
		c-0.01,0-0.01,0-0.02,0c0,0-0.01,0-0.01,0c-0.01,0-0.01,0-0.02,0c0,0-0.01,0-0.01,0c-0.01,0-0.01,0-0.02-0.01l0,0
		c-0.02-0.01-0.05-0.01-0.07-0.02l0,0c-0.01,0-0.01,0-0.02-0.01c0,0,0,0-0.01,0c-0.01,0-0.01,0-0.02-0.01c0,0,0,0-0.01,0
		c-0.01,0-0.01,0-0.02,0c0,0,0,0-0.01,0c-0.01,0-0.01,0-0.02,0c0,0,0,0-0.01,0c-0.01,0-0.01,0-0.02-0.01l0,0
		c-0.04-0.01-0.08-0.02-0.12-0.03l0,0c-0.01,0-0.01,0-0.02-0.01l0,0c-0.01,0-0.01,0-0.02-0.01l0,0c-0.01,0-0.01,0-0.02-0.01l0,0
		c-0.05-0.01-0.1-0.03-0.14-0.04c0,0,0,0,0,0c-0.01,0-0.02,0-0.02-0.01l0,0c-0.01,0-0.02,0-0.02-0.01c0,0,0,0,0,0
		c-0.89-0.24-1.79-0.46-2.7-0.67l0,0c-0.01,0-0.02,0-0.02-0.01l0,0c-0.01,0-0.02,0-0.02-0.01l0,0c-0.05-0.01-0.1-0.02-0.15-0.03
		c0,0,0,0,0,0c-0.01,0-0.02,0-0.02-0.01l0,0c-0.01,0-0.02,0-0.02-0.01l0,0c-0.05-0.01-0.1-0.02-0.15-0.03l0,0
		c-0.01,0-0.02,0-0.02-0.01l0,0c-0.01,0-0.02,0-0.02-0.01l0,0c-0.01,0-0.01,0-0.02,0c0,0,0,0,0,0c-0.06-0.01-0.11-0.02-0.17-0.04
		l0,0c-0.01,0-0.02,0-0.02,0l0,0c-0.01,0-0.02,0-0.02,0l0,0c-0.04-0.01-0.08-0.02-0.12-0.03l0,0c-0.01,0-0.01,0-0.02,0c0,0,0,0,0,0
		c-0.01,0-0.01,0-0.02,0l-0.01,0c-0.01,0-0.01,0-0.02,0c0,0,0,0-0.01,0c-0.01,0-0.01,0-0.02,0l0,0c-0.04-0.01-0.08-0.02-0.12-0.03
		l0,0c-0.01,0-0.01,0-0.02,0l0,0c-0.01,0-0.01,0-0.02,0c0,0,0,0-0.01,0c-0.01,0-0.01,0-0.02,0c0,0,0,0-0.01,0c-0.01,0-0.01,0-0.02,0
		l0,0c-0.03-0.01-0.06-0.01-0.09-0.02c0,0,0,0-0.01,0c-0.01,0-0.01,0-0.02,0c0,0,0,0-0.01,0c-0.01,0-0.01,0-0.02,0c0,0,0,0-0.01,0
		c-0.01,0-0.01,0-0.02,0c0,0,0,0-0.01,0c-0.01,0-0.01,0-0.02,0c0,0,0,0-0.01,0c-0.01,0-0.01,0-0.02,0l0,0
		c-0.02,0-0.05-0.01-0.07-0.01l0,0c-0.01,0-0.01,0-0.02,0c0,0,0,0-0.01,0c-0.01,0-0.01,0-0.02,0c0,0,0,0-0.01,0
		c-0.01,0-0.01,0-0.02,0c0,0,0,0-0.01,0c-0.01,0-0.01,0-0.02,0c0,0-0.01,0-0.01,0c-0.01,0-0.01,0-0.02,0c0,0-0.01,0-0.01,0
		c-0.01,0-0.01,0-0.02,0c0,0,0,0-0.01,0c-0.01,0-0.02,0-0.03-0.01c0,0,0,0-0.01,0c-0.01,0-0.01,0-0.02,0c0,0-0.01,0-0.01,0
		c-0.01,0-0.01,0-0.02,0c0,0-0.01,0-0.01,0c0,0-0.01,0-0.01,0c0,0-0.01,0-0.01,0c0,0-0.01,0-0.02,0c0,0-0.01,0-0.01,0
		c0,0-0.01,0-0.01,0c0,0-0.01,0-0.01,0c0,0-0.01,0-0.01,0c0,0-0.01,0-0.01,0c0,0-0.01,0-0.01,0c0,0-0.01,0-0.01,0
		c-0.01,0-0.02,0-0.03-0.01c0,0-0.01,0-0.01,0c0,0-0.01,0-0.01,0c0,0-0.01,0-0.01,0c0,0-0.01,0-0.01,0c0,0-0.01,0-0.01,0
		c0,0-0.01,0-0.01,0c0,0-0.01,0-0.01,0c0,0-0.01,0-0.01,0c0,0-0.01,0-0.01,0c0,0-0.01,0-0.01,0c-0.01,0-0.01,0-0.02,0
		c0,0-0.01,0-0.01,0c-0.01,0-0.01,0-0.02,0c0,0,0,0-0.01,0c-0.01,0-0.02,0-0.03-0.01c0,0-0.01,0-0.01,0c-0.01,0-0.01,0-0.02,0
		c0,0-0.01,0-0.01,0c0,0-0.01,0-0.02,0c0,0-0.01,0-0.01,0c0,0-0.01,0-0.02,0c0,0-0.01,0-0.01,0c0,0-0.01,0-0.02,0c0,0-0.01,0-0.01,0
		c0,0-0.01,0-0.02,0c0,0-0.01,0-0.01,0c-0.01,0-0.01,0-0.02,0c0,0-0.01,0-0.01,0c-0.01,0-0.02,0-0.03-0.01c0,0,0,0,0,0
		c-0.01,0-0.01,0-0.02,0c0,0-0.01,0-0.01,0c-0.01,0-0.01,0-0.02,0c0,0-0.01,0-0.01,0c0,0-0.01,0-0.02,0c0,0-0.01,0-0.01,0
		c0,0-0.01,0-0.02,0c0,0-0.01,0-0.01,0c0,0-0.01,0-0.02,0c0,0-0.01,0-0.01,0c-0.01,0-0.01,0-0.02,0c0,0-0.01,0-0.01,0
		c-0.01,0-0.01,0-0.02,0c0,0,0,0,0,0c-0.02,0-0.04-0.01-0.05-0.01c0,0-0.01,0-0.01,0c-0.01,0-0.01,0-0.02,0c0,0-0.01,0-0.01,0
		c0,0-0.01,0-0.02,0c0,0-0.01,0-0.01,0c0,0-0.02,0-0.02,0c0,0,0,0-0.01,0c-0.01,0-0.01,0-0.02,0c0,0-0.01,0-0.01,0
		c-0.01,0-0.01,0-0.02,0c0,0,0,0,0,0c-0.03-0.01-0.06-0.01-0.08-0.02c0,0,0,0,0,0c-0.01,0-0.01,0-0.02,0c0,0,0,0,0,0
		c-0.01,0-0.01,0-0.02,0c0,0,0,0-0.01,0c-0.01,0-0.01,0-0.02,0c0,0,0,0,0,0c-0.01,0-0.01,0-0.02,0c0,0,0,0,0,0
		c-0.03-0.01-0.06-0.01-0.08-0.02c0,0,0,0,0,0c-0.01,0-0.02,0-0.03,0c0,0,0,0,0,0c-0.01,0-0.01,0-0.02,0c0,0,0,0,0,0
		c-0.01,0-0.01,0-0.02,0c0,0,0,0,0,0c-0.01,0-0.02,0-0.02,0c0,0,0,0,0,0c-0.04-0.01-0.07-0.01-0.11-0.02c0,0,0,0,0,0
		c-0.01,0-0.02,0-0.03,0c0,0,0,0,0,0c-0.01,0-0.02,0-0.02,0c0,0,0,0,0,0c-0.01,0-0.02,0-0.02,0c0,0,0,0,0,0
		c-0.06-0.01-0.11-0.02-0.17-0.03c0,0,0,0,0,0c-0.01,0-0.02,0-0.03,0c0,0,0,0,0,0c-0.07-0.01-0.13-0.02-0.2-0.03c0,0,0,0,0,0
		c-0.08-0.01-0.15-0.03-0.23-0.04c0,0,0,0,0,0c-0.72-0.12-1.45-0.24-2.18-0.34c0,0,0,0,0,0C85.23,1.7,85.1,1.68,84.98,1.67
		L84.98,1.67z">

		<animateTransform attributeName="transform"
						  attributeType="XML"
						  type="rotate"
						  from="0 75 75"
						  to= "360 75 75"
						  dur="10s"
						  repeatCount="indefinite" />

	</path>
</g>
<g>
	<circle class="st0" cx="75" cy="75.6" r="63.17"/>
</g>
<path class="st1" d="M56.95,88.84L56.95,88.84c-1.65,0-3.01-1.35-3.01-3.01V65.37c0-1.65,1.35-3.01,3.01-3.01h0
	c1.65,0,3.01,1.35,3.01,3.01v20.46C59.96,87.48,58.61,88.84,56.95,88.84z">

	<animateTransform id="lines"
					  attributeName="transform"
					  attributeType="XML"
					  type="translate"
					  begin=".1"
					  dur="1s"
					  values="0,6;0,-6;0,6"
					  repeatCount="indefinite" />

</path>
<path class="st1" d="M65.98,88.84L65.98,88.84c-1.65,0-3.01-1.35-3.01-3.01V65.37c0-1.65,1.35-3.01,3.01-3.01h0
	c1.65,0,3.01,1.35,3.01,3.01v20.46C68.98,87.48,67.63,88.84,65.98,88.84z">

	<animateTransform id="lines"
					  attributeName="transform"
					  attributeType="XML"
					  type="translate"
					  begin=".2"
					  dur="1s"
					  values="0,6;0,-6;0,6"
					  repeatCount="indefinite" />

</path>
<path class="st1" d="M75,88.84L75,88.84c-1.65,0-3.01-1.35-3.01-3.01V65.37c0-1.65,1.35-3.01,3.01-3.01l0,0
	c1.65,0,3.01,1.35,3.01,3.01v20.46C78.01,87.48,76.65,88.84,75,88.84z">

	<animateTransform id="lines"
					  attributeName="transform"
					  attributeType="XML"
					  type="translate"
					  begin=".3"
					  dur="1s"
					  values="0,6;0,-6;0,6"
					  repeatCount="indefinite" />

</path>
<path class="st1" d="M84.02,88.84L84.02,88.84c-1.65,0-3.01-1.35-3.01-3.01V65.37c0-1.65,1.35-3.01,3.01-3.01h0
	c1.65,0,3.01,1.35,3.01,3.01v20.46C87.03,87.48,85.68,88.84,84.02,88.84z">

	<animateTransform id="lines"
					  attributeName="transform"
					  attributeType="XML"
					  type="translate"
					  begin=".4"
					  dur="1s"
					  values="0,6;0,-6;0,6"
					  repeatCount="indefinite" />

</path>
<path class="st1" d="M93.05,88.84L93.05,88.84c-1.65,0-3.01-1.35-3.01-3.01V65.37c0-1.65,1.35-3.01,3.01-3.01h0
	c1.65,0,3.01,1.35,3.01,3.01v20.46C96.06,87.48,94.7,88.84,93.05,88.84z">

	<animateTransform id="lines"
					  attributeName="transform"
					  attributeType="XML"
					  type="translate"
					  begin=".5"
					  dur="1s"
					  values="0,6;0,-6;0,6"
					  repeatCount="indefinite" />

</path>
</svg>
